<svg width="60" height="60" viewBox="0 0 60 60" fill="none" xmlns="http://www.w3.org/2000/svg">
<path d="M57.1465 29.5732C57.1465 14.3449 44.8016 1.99995 29.5733 1.99995C14.345 1.99995 2 14.3449 2 29.5732C2 44.8015 14.345 57.1465 29.5733 57.1465C44.8016 57.1465 57.1465 44.8015 57.1465 29.5732Z" fill="white"/>
<path d="M57.1465 29.5732C57.1465 14.3449 44.8016 1.99995 29.5733 1.99995C14.345 1.99995 2 14.3449 2 29.5732C2 44.8015 14.345 57.1465 29.5733 57.1465C44.8016 57.1465 57.1465 44.8015 57.1465 29.5732Z" fill="url(#paint0_radial_3024_268)"/>
<path d="M57.1465 29.5732C57.1465 14.3449 44.8016 1.99995 29.5733 1.99995C14.345 1.99995 2 14.3449 2 29.5732C2 44.8015 14.345 57.1465 29.5733 57.1465C44.8016 57.1465 57.1465 44.8015 57.1465 29.5732Z" stroke="white" stroke-width="4" stroke-linecap="round" stroke-linejoin="round"/>
<path d="M33.8155 42.2993L21.0894 29.5732L33.8155 16.8471" stroke="white" stroke-width="4" stroke-linecap="round" stroke-linejoin="round"/>
<defs>
<radialGradient id="paint0_radial_3024_268" cx="0" cy="0" r="1" gradientUnits="userSpaceOnUse" gradientTransform="translate(29.6491 57.1731) rotate(-90) scale(55.2078 65.5882)">
<stop stop-color="#009746"/>
<stop offset="0.5" stop-color="#34CB7A"/>
<stop offset="1" stop-color="#009746"/>
</radialGradient>
</defs>
</svg>
