<svg width="76" height="63" viewBox="0 0 76 63" fill="none" xmlns="http://www.w3.org/2000/svg">
<path fill-rule="evenodd" clip-rule="evenodd" d="M3.29915 0.732422C1.6423 0.732422 0.299152 2.07557 0.299152 3.73242V10.5552C0.299043 10.57 0.299043 10.5848 0.299152 10.5997V59.0794C0.299152 60.7362 1.6423 62.0794 3.29915 62.0794H72.089C73.7458 62.0794 75.089 60.7362 75.089 59.0794V10.5991C75.0891 10.5847 75.0891 10.5702 75.089 10.5557V3.73242C75.089 2.07557 73.7458 0.732422 72.089 0.732422H3.29915ZM69.089 9.16619V6.73242H6.29915V9.1662L36.1918 33.8623L36.192 33.8624C36.6038 34.2028 37.1356 34.3967 37.6941 34.3967C38.2526 34.3967 38.7843 34.2028 39.1962 33.8624L39.1964 33.8623L69.089 9.16619ZM6.29915 16.949V56.0794H69.089V16.949L43.0181 38.4877L43.0179 38.4879C41.5203 39.7252 39.6341 40.3967 37.6941 40.3967C35.7539 40.3967 33.8676 39.7252 32.3701 38.4877L6.29915 16.949Z" fill="black"/>
</svg>
