<svg width="50" height="70" viewBox="0 0 50 70" fill="none" xmlns="http://www.w3.org/2000/svg">
<path fill-rule="evenodd" clip-rule="evenodd" d="M11.9488 12.0542C15.4651 8.52058 20.2311 6.53809 25.1975 6.53809C30.1639 6.53809 34.93 8.52058 38.4463 12.0542C41.9631 15.5884 43.9414 20.3849 43.9414 25.3893C43.9414 27.7126 42.8372 31.2924 40.818 35.6867C38.8512 39.9668 36.203 44.6324 33.5166 48.9849C30.8364 53.3273 28.1514 57.3046 26.1338 60.1995C25.8025 60.6749 25.4894 61.1208 25.1975 61.5339C24.9057 61.1208 24.5926 60.6749 24.2613 60.1995C22.2437 57.3046 19.5586 53.3273 16.8785 48.9849C14.192 44.6324 11.5438 39.9668 9.57708 35.6867C7.55786 31.2924 6.45361 27.7126 6.45361 25.3893C6.45361 20.3849 8.43198 15.5884 11.9488 12.0542ZM22.7913 68.4553C22.7916 68.4558 22.7919 68.4561 25.1975 66.6637L22.7919 68.4561C23.358 69.216 24.2499 69.6637 25.1975 69.6637C26.1451 69.6637 27.037 69.216 27.6032 68.4561L25.1975 66.6637C27.6032 68.4561 27.6035 68.4558 27.6038 68.4553L27.6049 68.4538L27.6086 68.4489L27.6218 68.4311L27.6713 68.3643L27.7411 68.2699L27.8591 68.1096C28.0225 67.8873 28.2604 67.562 28.5622 67.1449C29.1658 66.3108 30.0256 65.109 31.0562 63.6302C33.1156 60.6753 35.8666 56.6012 38.6224 52.1363C41.3719 47.6815 44.1597 42.7842 46.2699 38.1919C48.3277 33.7137 49.9414 29.1114 49.9414 25.3893C49.9414 18.8031 47.3381 12.4837 42.6993 7.82205C38.0601 3.15993 31.7648 0.538086 25.1975 0.538086C18.6303 0.538086 12.335 3.15993 7.69573 7.82205C3.05699 12.4837 0.453613 18.8031 0.453613 25.3893C0.453613 29.1114 2.06735 33.7137 4.12512 38.1919C6.23534 42.7842 9.02315 47.6815 11.7727 52.1363C14.5285 56.6012 17.2794 60.6753 19.3388 63.6302C20.3695 65.109 21.2293 66.3108 21.8328 67.1449C22.1347 67.562 22.3726 67.8873 22.536 68.1096C22.6176 68.2207 22.6807 68.3061 22.7238 68.3643L22.7733 68.4311L22.7865 68.4489L22.7902 68.4538L22.7913 68.4553ZM21.1309 25.033C21.1309 22.5217 23.0603 20.6865 25.1976 20.6865C27.3349 20.6865 29.2644 22.5217 29.2644 25.033C29.2644 27.5444 27.3349 29.3796 25.1976 29.3796C23.0603 29.3796 21.1309 27.5444 21.1309 25.033ZM25.1976 14.6865C19.5292 14.6865 15.1309 19.4297 15.1309 25.033C15.1309 30.6364 19.5292 35.3796 25.1976 35.3796C30.8661 35.3796 35.2644 30.6364 35.2644 25.033C35.2644 19.4297 30.8661 14.6865 25.1976 14.6865Z" fill="black"/>
</svg>
