<svg width="73" height="75" viewBox="0 0 73 75" fill="none" xmlns="http://www.w3.org/2000/svg">
<path fill-rule="evenodd" clip-rule="evenodd" d="M6.36084 37.2752C6.36084 19.8971 19.9107 6 36.3943 6C52.8779 6 66.4277 19.8971 66.4277 37.2752C66.4277 54.6534 52.8779 68.5505 36.3943 68.5505C19.9107 68.5505 6.36084 54.6534 6.36084 37.2752ZM36.3943 0C16.3902 0 0.36084 16.794 0.36084 37.2752C0.36084 57.7565 16.3902 74.5505 36.3943 74.5505C56.3984 74.5505 72.4278 57.7565 72.4278 37.2752C72.4278 16.794 56.3984 0 36.3943 0ZM39.3943 24.1367C39.3943 22.4799 38.0511 21.1367 36.3943 21.1367C34.7374 21.1367 33.3943 22.4799 33.3943 24.1367V37.2149C33.3943 37.9243 33.6457 38.6108 34.1039 39.1525L47.2034 54.637C48.2735 55.9019 50.1664 56.0599 51.4313 54.9898C52.6963 53.9197 52.8542 52.0268 51.7841 50.7618L39.3943 36.1161V24.1367Z" fill="black"/>
</svg>
