<svg width="74" height="74" viewBox="0 0 74 74" fill="none" xmlns="http://www.w3.org/2000/svg">
<path d="M45.814 67.7795C48.964 69.8216 52.7177 70.7115 56.4438 70.2996C60.1699 69.8877 63.6413 68.1992 66.2743 65.5179L68.5761 63.2563C69.5852 62.2191 70.1502 60.8261 70.1502 59.3756C70.1502 57.925 69.5852 56.5321 68.5761 55.4949L58.8063 45.7803C57.7827 44.7695 56.4051 44.2031 54.97 44.2031C53.5349 44.2031 52.1572 44.7695 51.1337 45.7803V45.7803C50.1015 46.7943 48.7153 47.3621 47.2718 47.3621C45.8283 47.3621 44.4421 46.7943 43.4099 45.7803L28.0648 30.3603C27.5528 29.8533 27.1463 29.2492 26.8689 28.583C26.5914 27.9168 26.4485 27.2018 26.4485 26.4796C26.4485 25.7573 26.5914 25.0423 26.8689 24.3761C27.1463 23.7099 27.5528 23.1058 28.0648 22.5989V22.5989C29.0707 21.5703 29.6343 20.1859 29.6343 18.7438C29.6343 17.3018 29.0707 15.9174 28.0648 14.8888L18.3461 5.12284C17.314 4.10879 15.9278 3.54102 14.4843 3.54102C13.0407 3.54102 11.6546 4.10879 10.6224 5.12284L8.37176 7.43584C5.70347 10.0816 4.02311 13.5699 3.61324 17.3142C3.20336 21.0586 4.08897 24.8305 6.12114 27.9959C16.7095 43.6766 30.1821 57.1799 45.814 67.7795V67.7795Z" stroke="black" stroke-width="6" stroke-linecap="round" stroke-linejoin="round"/>
</svg>
