<svg width="30" height="41" viewBox="0 0 30 41" fill="none" xmlns="http://www.w3.org/2000/svg">
<path d="M28.3551 14.4938C28.3551 21.9604 14.9276 39.9821 14.9276 39.9821C14.9276 39.9821 1.5 21.9604 1.5 14.4938C1.5 10.915 2.91469 7.48282 5.43284 4.95224C7.951 2.42166 11.3664 1 14.9276 1C18.4888 1 21.9041 2.42166 24.4223 4.95224C26.9404 7.48282 28.3551 10.915 28.3551 14.4938Z" stroke="white" stroke-width="2" stroke-linecap="round" stroke-linejoin="round"/>
<path d="M14.9279 18.8107C17.3381 18.8107 19.2919 16.7796 19.2919 14.274C19.2919 11.7685 17.3381 9.7373 14.9279 9.7373C12.5178 9.7373 10.564 11.7685 10.564 14.274C10.564 16.7796 12.5178 18.8107 14.9279 18.8107Z" stroke="white" stroke-width="2" stroke-linecap="round" stroke-linejoin="round"/>
</svg>
