<svg width="44" height="43" viewBox="0 0 44 43" fill="none" xmlns="http://www.w3.org/2000/svg">
<path d="M27.5261 40.3942C29.4643 41.6465 31.7739 42.1923 34.0665 41.9397C36.3592 41.6871 38.4951 40.6516 40.1152 39.0073L41.5314 37.6204C42.1523 36.9843 42.5 36.1301 42.5 35.2405C42.5 34.351 42.1523 33.4968 41.5314 32.8607L35.5202 26.9032C34.8904 26.2833 34.0427 25.936 33.1597 25.936C32.2767 25.936 31.429 26.2833 30.7993 26.9032V26.9032C30.1642 27.5251 29.3113 27.8733 28.4231 27.8733C27.5349 27.8733 26.682 27.5251 26.0469 26.9032L16.6051 17.4469C16.2901 17.136 16.04 16.7655 15.8693 16.357C15.6985 15.9484 15.6106 15.5099 15.6106 15.0671C15.6106 14.6242 15.6985 14.1857 15.8693 13.7771C16.04 13.3686 16.2901 12.9981 16.6051 12.6872V12.6872C17.224 12.0565 17.5708 11.2075 17.5708 10.3231C17.5708 9.43878 17.224 8.5898 16.6051 7.95905L10.6253 1.97005C9.99018 1.34819 9.13727 1 8.24909 1C7.3609 1 6.508 1.34819 5.8729 1.97005L4.4881 3.3885C2.84632 5.01102 1.81241 7.15023 1.56021 9.44643C1.30802 11.7426 1.85292 14.0558 3.10331 15.9969C9.61829 25.6132 17.9079 33.8941 27.5261 40.3942V40.3942Z" stroke="white" stroke-width="2" stroke-linecap="round" stroke-linejoin="round"/>
</svg>
