<svg width="92" height="118" viewBox="0 0 92 118" fill="none" xmlns="http://www.w3.org/2000/svg">
<path d="M38.8343 4.46308C38.3269 4.16002 37.747 4 37.156 4C36.5651 4 35.9851 4.16002 35.4778 4.46308C35.0593 4.79465 34.7769 5.26817 34.6841 5.79396C34.5914 6.31976 34.6946 6.86132 34.9743 7.31611C45.2955 25.1894 47.4773 49.524 33.38 62.95C27.9561 58.3921 23.6501 52.6507 20.7931 46.1675C15.5799 49.0629 11.2594 53.3311 8.3008 58.5087C5.34217 63.6863 3.85842 69.5755 4.01064 75.5369C4.22345 80.7922 5.48527 85.9518 7.72185 90.7121C9.95843 95.4724 13.1246 99.7373 17.034 103.256C20.9434 106.774 25.5171 109.475 30.4859 111.2C35.4547 112.924 40.7183 113.637 45.9668 113.297C72.9866 113.297 87 96.515 87.923 75.5369C89.0139 50.3632 71.1406 19.3995 38.8343 4.46308Z" stroke="black" stroke-width="8" stroke-linecap="round" stroke-linejoin="round"/>
<path d="M64.7825 75.5369C64.7825 79.9879 63.0143 84.2565 59.867 87.4039C56.7197 90.5512 52.451 92.3193 48 92.3193" stroke="black" stroke-width="8" stroke-linecap="round" stroke-linejoin="round"/>
</svg>
