<svg width="280" height="142" viewBox="0 0 280 142" fill="none" xmlns="http://www.w3.org/2000/svg">
<path fill-rule="evenodd" clip-rule="evenodd" d="M260.38 105.61C261.13 104.92 263.79 102.53 263.71 100.88C263.58 98.36 260.86 97.82 259.14 100.07C258.19 101.31 258.03 102.83 257.59 104.39C257.15 105.95 257.21 107.81 255.92 107.93C253.77 108.13 252.52 104.19 253.01 101.69C254.61 93.47 250.4 93.87 249.39 101.52C248.93 104.93 244.82 101.83 242.19 102.4C240.88 102.68 240.19 103.66 238.87 103.4C237.863 103.015 236.979 102.365 236.31 101.52C234.858 100.032 233.776 98.2231 233.15 96.24C229.15 81.94 220.5 89.01 230.3 97.64C232.57 99.64 232.75 99.75 233.81 101.71C234.273 102.417 234.514 103.246 234.501 104.091C234.489 104.936 234.224 105.757 233.74 106.45C232.4 108.28 231.05 107.01 229.74 105.78C222.18 98.78 208.04 107.08 218.94 111.59C221.94 112.82 230.09 108.74 232.32 110.78C233.82 112.16 229.55 112.89 229.19 114.46C228.77 116.32 232.51 116.58 233 117.93C234.08 120.93 230.61 123.56 228.39 124.1C222.04 125.65 211.53 119.96 207.64 128.44C206.54 130.85 206.31 133.28 207.96 135.38C213.96 143.09 221.96 134.03 226.14 129.53C228.84 126.61 231.31 122.26 235.57 123.12C239.17 123.84 238.91 125.45 240.68 127.84C242.8 130.7 244.74 126.49 248.28 127.78C251.06 128.78 249.95 131.67 251.5 134.23C254.13 138.56 258.3 134.89 253.75 130.88C253.24 130.43 252.97 130.01 252.38 129.54C250.82 128.28 248.99 126.96 250.32 124.11C252.62 119.2 255.41 121.92 256.21 121.89C257.21 121.89 257.21 120.95 257.21 120.59C257.218 120.288 257.191 119.986 257.13 119.69C256.88 118.18 256.08 116.69 257.29 115.13C258.629 113.789 260.401 112.967 262.29 112.81C267.97 112.2 277.91 121.58 278.79 113.1C279.36 107.66 271.79 107.31 266.5 108.84C265.73 109.07 265 109.31 264.21 109.61C263.42 109.91 263 110.4 262.27 110.61C260.81 111.02 259.21 112.8 257.83 111.75C255.49 110 259.62 106.29 260.38 105.61ZM254.57 89.39C250.99 91.8 254.15 98.39 258.02 94.77C258.549 94.2244 258.88 93.5178 258.962 92.7624C259.044 92.0069 258.87 91.2459 258.47 90.6C257.49 89.15 256 88.46 254.57 89.39ZM245.44 134.55C238.94 133.39 238.15 143.75 246.01 139.98C248.26 138.91 248.35 135.07 245.44 134.55ZM260.87 127.63C263.11 128.08 264.09 126.21 263.02 124.5C262.57 123.79 259.78 121.39 258.68 122.66C257.87 123.62 259.54 127.36 260.87 127.63ZM242.87 93.1C240.58 91.78 237.76 95.67 238.56 97.76C239.36 99.85 240.62 100.11 241.56 99.76C242.188 99.5614 242.755 99.2053 243.207 98.7257C243.658 98.2461 243.98 97.6589 244.14 97.02C244.63 94.5 243.55 93.47 242.9 93.1H242.87ZM237.33 133.87C241.78 134.56 238.33 129.61 237 131.98C236.57 132.83 236.69 133.77 237.36 133.87H237.33ZM226.33 114.51C225.13 113.3 223.86 112.94 223.33 115.25C222.44 119.47 229.15 117.36 226.32 114.51H226.33Z" fill="#00953F"/>
<path d="M260.38 105.61C261.13 104.92 263.79 102.53 263.71 100.88C263.58 98.36 260.86 97.82 259.14 100.07C258.19 101.31 258.03 102.83 257.59 104.39C257.15 105.95 257.21 107.81 255.92 107.93C253.77 108.13 252.52 104.19 253.01 101.69C254.61 93.47 250.4 93.87 249.39 101.52C248.93 104.93 244.82 101.83 242.19 102.4C240.88 102.68 240.19 103.66 238.87 103.4C237.863 103.015 236.979 102.365 236.31 101.52C234.858 100.032 233.776 98.2231 233.15 96.24C229.15 81.94 220.5 89.01 230.3 97.64C232.57 99.64 232.75 99.75 233.81 101.71C234.273 102.417 234.514 103.246 234.501 104.091C234.489 104.936 234.224 105.757 233.74 106.45C232.4 108.28 231.05 107.01 229.74 105.78C222.18 98.78 208.04 107.08 218.94 111.59C221.94 112.82 230.09 108.74 232.32 110.78C233.82 112.16 229.55 112.89 229.19 114.46C228.77 116.32 232.51 116.58 233 117.93C234.08 120.93 230.61 123.56 228.39 124.1C222.04 125.65 211.53 119.96 207.64 128.44C206.54 130.85 206.31 133.28 207.96 135.38C213.96 143.09 221.96 134.03 226.14 129.53C228.84 126.61 231.31 122.26 235.57 123.12C239.17 123.84 238.91 125.45 240.68 127.84C242.8 130.7 244.74 126.49 248.28 127.78C251.06 128.78 249.95 131.67 251.5 134.23C254.13 138.56 258.3 134.89 253.75 130.88C253.24 130.43 252.97 130.01 252.38 129.54C250.82 128.28 248.99 126.96 250.32 124.11C252.62 119.2 255.41 121.92 256.21 121.89C257.21 121.89 257.21 120.95 257.21 120.59C257.218 120.288 257.191 119.986 257.13 119.69C256.88 118.18 256.08 116.69 257.29 115.13C258.629 113.789 260.401 112.967 262.29 112.81C267.97 112.2 277.91 121.58 278.79 113.1C279.36 107.66 271.79 107.31 266.5 108.84C265.73 109.07 265 109.31 264.21 109.61C263.42 109.91 263 110.4 262.27 110.61C260.81 111.02 259.21 112.8 257.83 111.75C255.49 110 259.62 106.29 260.38 105.61ZM254.57 89.39C250.99 91.8 254.15 98.39 258.02 94.77C258.549 94.2244 258.88 93.5178 258.962 92.7624C259.044 92.0069 258.87 91.2459 258.47 90.6C257.49 89.15 256 88.46 254.57 89.39V89.39ZM245.44 134.55C238.94 133.39 238.15 143.75 246.01 139.98C248.26 138.91 248.35 135.07 245.44 134.55ZM260.87 127.63C263.11 128.08 264.09 126.21 263.02 124.5C262.57 123.79 259.78 121.39 258.68 122.66C257.87 123.62 259.54 127.36 260.87 127.63V127.63ZM242.87 93.1C240.58 91.78 237.76 95.67 238.56 97.76C239.36 99.85 240.62 100.11 241.56 99.76C242.188 99.5614 242.755 99.2053 243.207 98.7257C243.658 98.2461 243.98 97.6589 244.14 97.02C244.63 94.5 243.55 93.47 242.9 93.1H242.87ZM237.33 133.87C241.78 134.56 238.33 129.61 237 131.98C236.57 132.83 236.69 133.77 237.36 133.87H237.33ZM226.33 114.51C225.13 113.3 223.86 112.94 223.33 115.25C222.44 119.47 229.15 117.36 226.32 114.51H226.33Z" stroke="#00953F" stroke-width="0.57" stroke-miterlimit="22.93"/>
<path fill-rule="evenodd" clip-rule="evenodd" d="M90.2397 121.92C91.3428 123.558 92.1141 125.396 92.5098 127.33C93.0498 129.82 93.4498 131.33 96.0698 131.73C99.8298 132.34 105.32 128.82 101.97 124.15C99.9697 121.39 89.4997 115.15 88.2397 114.58C87.0897 113.75 85.1498 113.15 85.8298 110.85C86.2398 109.47 87.6997 107.96 88.3597 107.12C90.3597 104.56 87.0497 100.37 86.5997 97.72C86.5997 92.45 91.3098 93.85 97.4498 92.96C99.6098 92.64 101.95 92.2 102.55 90.31C104.25 84.97 91.7597 75.31 85.9997 87.48C85.1297 89.33 84.3097 91.04 83.4897 92.95C82.8497 94.06 82.0497 95.81 81.2497 96.43C79.9697 97.43 78.0397 96.43 77.5397 95.43C76.4597 93.52 79.0997 88.55 79.3697 86.3C79.8697 82.19 74.7697 81.04 73.0597 83.37C70.5297 86.81 73.2897 90.3 72.7897 92.47C70.7897 94.04 68.5597 92.3 67.7297 91.06C64.9997 86.95 66.9997 83.96 67.7897 79.88C68.1727 78.1492 68.3705 76.3826 68.3797 74.61C68.0298 69.55 62.8397 67.16 59.6597 70.61C53.0397 77.77 75.0397 98.32 55.5497 95.05C53.0297 94.63 49.4397 93.77 47.7897 95.6C46.1397 97.43 47.8497 101.29 50.3097 101.29C53.1297 101.29 53.8997 96.92 56.3097 98.43C57.6397 99.27 58.6798 103.29 58.6398 105.6C58.6398 108.4 57.2898 110.97 54.6398 111.04C48.7698 111.19 45.0697 105.37 34.5397 107.73C27.1997 109.38 28.0897 117.62 31.5397 118.54C36.7997 119.95 50.4398 107.32 58.7698 116.88C61.9498 122.52 56.8597 124.62 55.6097 127.88C53.7297 134.09 62.1998 134.88 61.7698 127.75C61.6298 125.47 61.0097 122.75 63.4697 122.11C68.9497 120.77 69.4098 130.89 73.5798 126.67C76.5798 124.46 70.4197 118.47 78.9997 117.75C83.2397 117.4 87.6297 118.26 90.2397 121.92ZM44.0597 78.57C38.4597 79.83 41.9098 88.64 47.1998 87.96C49.8598 87.62 50.6797 84.61 49.4697 81.96C48.7097 80.31 46.6897 78 44.0597 78.57ZM103.76 105.62C104.76 103 102.11 101.25 99.5798 101.36C97.0498 101.47 94.9098 102.97 94.3898 104.81C92.9998 109.82 101.89 110.62 103.76 105.62ZM44.1897 137.34C45.6197 142.63 51.9697 141.68 50.7497 136.22C49.6297 131.19 42.6797 131.78 44.1897 137.34ZM76.5597 132.53C76.9197 136.11 81.6997 137 81.4197 133.02C81.1497 129.24 76.1497 128.4 76.5597 132.53ZM49.8497 119.8C48.8497 124.8 57.5698 124.95 53.2598 118.8C52.1098 117.12 50.2497 117.86 49.8497 119.8Z" fill="#EE7C00"/>
<path d="M90.2397 121.92C91.3428 123.558 92.1141 125.396 92.5098 127.33C93.0498 129.82 93.4498 131.33 96.0698 131.73C99.8298 132.34 105.32 128.82 101.97 124.15C99.9697 121.39 89.4997 115.15 88.2397 114.58C87.0897 113.75 85.1498 113.15 85.8298 110.85C86.2398 109.47 87.6997 107.96 88.3597 107.12C90.3597 104.56 87.0497 100.37 86.5997 97.72C86.5997 92.45 91.3098 93.85 97.4498 92.96C99.6098 92.64 101.95 92.2 102.55 90.31C104.25 84.97 91.7597 75.31 85.9997 87.48C85.1297 89.33 84.3097 91.04 83.4897 92.95C82.8497 94.06 82.0497 95.81 81.2497 96.43C79.9697 97.43 78.0397 96.43 77.5397 95.43C76.4597 93.52 79.0997 88.55 79.3697 86.3C79.8697 82.19 74.7697 81.04 73.0597 83.37C70.5297 86.81 73.2897 90.3 72.7897 92.47C70.7897 94.04 68.5597 92.3 67.7297 91.06C64.9997 86.95 66.9997 83.96 67.7897 79.88C68.1727 78.1492 68.3705 76.3826 68.3797 74.61C68.0297 69.55 62.8397 67.16 59.6597 70.61C53.0397 77.77 75.0397 98.32 55.5497 95.05C53.0297 94.63 49.4397 93.77 47.7897 95.6C46.1397 97.43 47.8497 101.29 50.3097 101.29C53.1297 101.29 53.8997 96.92 56.3097 98.43C57.6397 99.27 58.6798 103.29 58.6398 105.6C58.6398 108.4 57.2898 110.97 54.6398 111.04C48.7698 111.19 45.0697 105.37 34.5397 107.73C27.1997 109.38 28.0897 117.62 31.5397 118.54C36.7997 119.95 50.4398 107.32 58.7698 116.88C61.9498 122.52 56.8597 124.62 55.6097 127.88C53.7297 134.09 62.1998 134.88 61.7698 127.75C61.6298 125.47 61.0097 122.75 63.4697 122.11C68.9497 120.77 69.4098 130.89 73.5798 126.67C76.5798 124.46 70.4197 118.47 78.9997 117.75C83.2397 117.4 87.6297 118.26 90.2397 121.92ZM44.0597 78.57C38.4597 79.83 41.9098 88.64 47.1998 87.96C49.8598 87.62 50.6797 84.61 49.4697 81.96C48.7097 80.31 46.6897 78 44.0597 78.57V78.57ZM103.76 105.62C104.76 103 102.11 101.25 99.5798 101.36C97.0498 101.47 94.9098 102.97 94.3898 104.81C92.9998 109.82 101.89 110.62 103.76 105.62V105.62ZM44.1897 137.34C45.6197 142.63 51.9697 141.68 50.7497 136.22C49.6297 131.19 42.6797 131.78 44.1897 137.34ZM76.5597 132.53C76.9197 136.11 81.6997 137 81.4197 133.02C81.1497 129.24 76.1497 128.4 76.5597 132.53V132.53ZM49.8497 119.8C48.8497 124.8 57.5698 124.95 53.2598 118.8C52.1098 117.12 50.2497 117.86 49.8497 119.8Z" stroke="#EC6C00" stroke-width="0.22" stroke-miterlimit="22.93"/>
<path d="M49.85 11.66C51.63 6.66001 44.16 4.24 43.18 13.08C42.14 22.45 48.72 14.86 49.85 11.66ZM26.3 8.26C26.4192 9.17387 26.8435 10.0207 27.5042 10.6632C28.1649 11.3058 29.0232 11.7063 29.94 11.8C32.04 11.8 33.02 9.8 32.59 7.68C31.7 3.32 25.6 2.82 26.3 8.26ZM29.58 56.26C30.66 60.9 36.39 58.49 34.12 53.92C31.85 49.35 28.25 50.5 29.58 56.27V56.26ZM55.77 33.4C55.97 36.17 60.47 35.99 60.33 32.96C60.19 29.93 55.56 30.47 55.77 33.4ZM4.67 17.77C5.24 20.07 9.53001 20.57 8.74001 17.02C8.09 14.08 3.87 14.52 4.67 17.77ZM11 8.1C12.21 12.6 26.88 19.63 21.7 26.29C20.59 27.72 17.93 28.76 16.34 27.72C15.02 26.86 14.34 24.85 13.18 23.72C11.72 22.29 9.66 24.35 11.36 26.02C14.09 28.7 17.94 29.56 19.29 34.02C22.29 44.09 7.85004 42.87 4.03004 44.82C0.210044 46.77 0.560013 53.87 3.81001 56.15C12.16 62 13.41 49.66 16.01 45.72C16.72 44.64 19.17 42.34 20.38 41.99C27.76 39.87 24.88 43.99 28.68 47.74C29.6 48.64 31.47 49.01 32.45 48.22C34.33 46.04 32.45 40.9 37.61 41.91C44.4 43.26 38.61 51.1 43.16 54.29C43.6581 54.6206 44.2341 54.8149 44.8306 54.8535C45.4272 54.8921 46.0235 54.7737 46.56 54.51C47.1501 54.2796 47.6742 53.9072 48.0859 53.4257C48.4976 52.9443 48.784 52.3687 48.92 51.75C49.19 49.62 46.62 47.12 45.06 45.59C44.25 44.8 41.67 42.37 42.82 41.21C44.51 39.5 52.82 40.11 54.87 43.81C55.6295 45.3492 56.2974 46.932 56.87 48.55C58.59 52.86 61.06 54.24 65.48 52.43C73.48 49.18 64.75 39.43 57.11 38.97C54.46 38.83 49.77 39.62 47.75 38.16C45.04 36.16 48.69 35.91 49.75 35.45C51.05 34.89 52.06 33.92 51.19 31.9C50.43 30.16 45.6 30.8 47.39 27.74C50.05 23.2 66.21 28.46 69.39 22.74C71.5 18.93 66.23 15.59 62.39 16.59C59.31 17.39 56.11 19.59 53.57 21.59C51.28 23.35 47.32 26.37 45.16 25.39C42.51 24.19 43.16 22.7 43.67 21.54C45.46 17.46 42.33 18.65 41.55 19.6C37.98 23.2 35.82 22.76 34.17 17.85C33.62 16.22 33.17 14.94 31.35 15.47C25.66 17.63 31.66 24.89 26.01 23.98C24.19 23.6 22.56 12.05 22.22 10.73C18.47 -3.84999 9.52002 2.37 11 8.1Z" fill="#E4007D"/>
<path d="M49.85 11.66C51.63 6.66001 44.16 4.24 43.18 13.08C42.14 22.45 48.72 14.86 49.85 11.66ZM26.3 8.26C26.4192 9.17387 26.8435 10.0207 27.5042 10.6632C28.1648 11.3058 29.0232 11.7063 29.94 11.8C32.04 11.8 33.02 9.8 32.59 7.68C31.7 3.32 25.6 2.82 26.3 8.26V8.26ZM29.58 56.26C30.66 60.9 36.39 58.49 34.12 53.92C31.85 49.35 28.25 50.5 29.58 56.27V56.26ZM55.77 33.4C55.97 36.17 60.47 35.99 60.33 32.96C60.19 29.93 55.56 30.47 55.77 33.4ZM4.67 17.77C5.24 20.07 9.53001 20.57 8.74001 17.02C8.09001 14.08 3.87 14.52 4.67 17.77V17.77ZM11 8.1C12.21 12.6 26.88 19.63 21.7 26.29C20.59 27.72 17.93 28.76 16.34 27.72C15.02 26.86 14.34 24.85 13.18 23.72C11.72 22.29 9.66 24.35 11.36 26.02C14.09 28.7 17.94 29.56 19.29 34.02C22.29 44.09 7.85004 42.87 4.03004 44.82C0.210044 46.77 0.560013 53.87 3.81001 56.15C12.16 62 13.41 49.66 16.01 45.72C16.72 44.64 19.17 42.34 20.38 41.99C27.76 39.87 24.88 43.99 28.68 47.74C29.6 48.64 31.47 49.01 32.45 48.22C34.33 46.04 32.45 40.9 37.61 41.91C44.4 43.26 38.61 51.1 43.16 54.29C43.658 54.6206 44.2341 54.8149 44.8306 54.8535C45.4272 54.8921 46.0235 54.7737 46.56 54.51C47.1501 54.2796 47.6742 53.9072 48.0859 53.4257C48.4976 52.9443 48.784 52.3687 48.92 51.75C49.19 49.62 46.62 47.12 45.06 45.59C44.25 44.8 41.67 42.37 42.82 41.21C44.51 39.5 52.82 40.11 54.87 43.81C55.6295 45.3492 56.2974 46.932 56.87 48.55C58.59 52.86 61.06 54.24 65.48 52.43C73.48 49.18 64.75 39.43 57.11 38.97C54.46 38.83 49.77 39.62 47.75 38.16C45.04 36.16 48.69 35.91 49.75 35.45C51.05 34.89 52.06 33.92 51.19 31.9C50.43 30.16 45.6 30.8 47.39 27.74C50.05 23.2 66.21 28.46 69.39 22.74C71.5 18.93 66.23 15.59 62.39 16.59C59.31 17.39 56.11 19.59 53.57 21.59C51.28 23.35 47.32 26.37 45.16 25.39C42.51 24.19 43.16 22.7 43.67 21.54C45.46 17.46 42.33 18.65 41.55 19.6C37.98 23.2 35.82 22.76 34.17 17.85C33.62 16.22 33.17 14.94 31.35 15.47C25.66 17.63 31.66 24.89 26.01 23.98C24.19 23.6 22.56 12.05 22.22 10.73C18.47 -3.84999 9.52002 2.37 11 8.1Z" stroke="#E4007D" stroke-width="0.57" stroke-miterlimit="22.93"/>
<path fill-rule="evenodd" clip-rule="evenodd" d="M259.14 18C259.3 18.9332 259.3 19.8868 259.14 20.82C257.77 28.91 243.61 23.61 240.85 24.94C240.503 25.1284 240.196 25.3836 239.947 25.6909C239.699 25.9982 239.514 26.3515 239.402 26.7306C239.291 27.1097 239.255 27.5072 239.298 27.9C239.34 28.2929 239.46 28.6735 239.65 29.02C240.26 30.1 241.81 30.96 242.91 31.81C243.82 32.52 245.2 34.6 243.81 35.96C242.42 37.32 235.67 37.12 238.13 41.89C240.32 46.13 250.62 42.83 252.13 46.22C252.54 47.12 252.89 55.28 242.13 46.86C240.706 46.0292 239.063 45.6524 237.42 45.78C236.21 48.67 242.98 52.55 235.6 53.33C233.18 53.1 234.03 49.76 230.33 50.48C228.19 50.89 226.02 52.41 225.73 54.69C225.28 58.25 230.3 60.12 232.16 65.63C233.45 69.47 230.46 70.63 228.74 69.83C224.74 67.99 226.92 55.83 222.42 54.25C221.2 53.6988 219.816 53.6344 218.55 54.07C212.81 56.43 213.7 69.56 206.83 71.53C204.3 72.26 200.26 71.6 198.56 70.29C194.39 67.09 195.56 59.96 198.67 56.29C201.78 52.62 207.37 51.97 212.78 50.56C213.25 50.09 213.84 49.96 214.49 49.45C219.31 45.66 215.87 39.82 210.01 38.86C206.57 38.54 204.61 41.51 200.28 41.63C196.59 41.73 192.93 38.01 196.98 33.46C201.03 28.91 207.62 41.46 212.75 29.87C215.06 24.65 216.54 27.02 219.3 24.08C225.51 17.48 219.15 16.37 216.54 14.4C215.191 13.3787 213.998 12.1659 213 10.8C208 3.02 218 -1.86 221.43 5.54C222.288 7.42116 222.705 9.47324 222.65 11.54C222.79 16.12 225.44 28.25 231.59 22.73C233.59 20.9 232.27 18.07 233.59 15.73C235.23 12.73 238.75 13.8 237.59 16.73C236.59 18.13 234.75 17.58 234.89 19.81C234.99 21.51 235.97 22.96 237.52 23.02C241.64 23.17 242.74 13.79 251.82 13.02C255.58 12.67 258.81 14.86 259.14 18ZM248.64 32.22C249.5 31.7237 250.441 31.385 251.42 31.22C254.07 30.64 256.42 30.75 256.31 33.65C256.15 39.8 242 36 248.64 32.18V32.22ZM191.64 51.51C190.818 51.2653 190.123 50.7123 189.7 49.9667C189.277 49.2212 189.159 48.3408 189.37 47.51C189.43 47.0899 189.579 46.6874 189.807 46.3291C190.034 45.9708 190.335 45.6648 190.689 45.4313C191.044 45.1979 191.444 45.0423 191.863 44.9748C192.282 44.9074 192.71 44.9296 193.12 45.04C196.8 45.9 195.65 52.36 191.61 51.47L191.64 51.51ZM211.15 23.42C207.98 24.69 203.68 19.54 206.15 17.35C208.62 15.16 212.89 20.49 211.12 23.38L211.15 23.42ZM243.59 63.74C240.67 62.07 242.59 58.16 245.59 59.28C248.59 60.4 246.44 65.36 243.56 63.7L243.59 63.74ZM199 22.58C199.149 23.1551 199.072 23.7652 198.786 24.2856C198.499 24.806 198.025 25.1975 197.46 25.38C197.16 25.4787 196.843 25.5162 196.529 25.4903C196.214 25.4644 195.908 25.3756 195.628 25.2292C195.348 25.0828 195.101 24.8818 194.9 24.638C194.7 24.3942 194.55 24.1127 194.46 23.81C193.73 20.51 198.07 19.32 199 22.58ZM232 7.24C232.48 4.32 236.88 4.76 236.41 8.24C236 11.18 231.44 10.65 232 7.24ZM260.34 43.7C255.84 44.7 257.34 41.34 257.53 41.15C258.15 40.36 261.35 39.39 260.34 43.7Z" fill="#FFEC00"/>
<path d="M259.14 18C259.3 18.9332 259.3 19.8868 259.14 20.82C257.77 28.91 243.61 23.61 240.85 24.94C240.503 25.1284 240.196 25.3836 239.947 25.6909C239.699 25.9982 239.514 26.3515 239.402 26.7306C239.291 27.1097 239.255 27.5072 239.298 27.9C239.34 28.2929 239.46 28.6735 239.65 29.02C240.26 30.1 241.81 30.96 242.91 31.81C243.82 32.52 245.2 34.6 243.81 35.96C242.42 37.32 235.67 37.12 238.13 41.89C240.32 46.13 250.62 42.83 252.13 46.22C252.54 47.12 252.89 55.28 242.13 46.86C240.706 46.0292 239.063 45.6524 237.42 45.78C236.21 48.67 242.98 52.55 235.6 53.33C233.18 53.1 234.03 49.76 230.33 50.48C228.19 50.89 226.02 52.41 225.73 54.69C225.28 58.25 230.3 60.12 232.16 65.63C233.45 69.47 230.46 70.63 228.74 69.83C224.74 67.99 226.92 55.83 222.42 54.25C221.2 53.6988 219.816 53.6344 218.55 54.07C212.81 56.43 213.7 69.56 206.83 71.53C204.3 72.26 200.26 71.6 198.56 70.29C194.39 67.09 195.56 59.96 198.67 56.29C201.78 52.62 207.37 51.97 212.78 50.56C213.25 50.09 213.84 49.96 214.49 49.45C219.31 45.66 215.87 39.82 210.01 38.86C206.57 38.54 204.61 41.51 200.28 41.63C196.59 41.73 192.93 38.01 196.98 33.46C201.03 28.91 207.62 41.46 212.75 29.87C215.06 24.65 216.54 27.02 219.3 24.08C225.51 17.48 219.15 16.37 216.54 14.4C215.191 13.3787 213.998 12.1659 213 10.8C208 3.02 218 -1.86 221.43 5.54C222.288 7.42116 222.705 9.47324 222.65 11.54C222.79 16.12 225.44 28.25 231.59 22.73C233.59 20.9 232.27 18.07 233.59 15.73C235.23 12.73 238.75 13.8 237.59 16.73C236.59 18.13 234.75 17.58 234.89 19.81C234.99 21.51 235.97 22.96 237.52 23.02C241.64 23.17 242.74 13.79 251.82 13.02C255.58 12.67 258.81 14.86 259.14 18ZM248.64 32.22C249.5 31.7237 250.441 31.385 251.42 31.22C254.07 30.64 256.42 30.75 256.31 33.65C256.15 39.8 242 36 248.64 32.18V32.22ZM191.64 51.51C190.818 51.2653 190.123 50.7123 189.7 49.9667C189.277 49.2212 189.159 48.3408 189.37 47.51C189.43 47.0899 189.579 46.6874 189.807 46.3291C190.034 45.9708 190.335 45.6648 190.689 45.4313C191.044 45.1979 191.444 45.0423 191.863 44.9748C192.282 44.9074 192.71 44.9296 193.12 45.04C196.8 45.9 195.65 52.36 191.61 51.47L191.64 51.51ZM211.15 23.42C207.98 24.69 203.68 19.54 206.15 17.35C208.62 15.16 212.89 20.49 211.12 23.38L211.15 23.42ZM243.59 63.74C240.67 62.07 242.59 58.16 245.59 59.28C248.59 60.4 246.44 65.36 243.56 63.7L243.59 63.74ZM199 22.58C199.149 23.1551 199.072 23.7652 198.786 24.2856C198.499 24.806 198.025 25.1975 197.46 25.38C197.16 25.4787 196.843 25.5162 196.529 25.4903C196.214 25.4644 195.908 25.3756 195.628 25.2292C195.348 25.0828 195.101 24.8818 194.9 24.638C194.7 24.3942 194.55 24.1127 194.46 23.81C193.73 20.51 198.07 19.32 199 22.58ZM232 7.24C232.48 4.32 236.88 4.76 236.41 8.24C236 11.18 231.44 10.65 232 7.24V7.24ZM260.34 43.7C255.84 44.7 257.34 41.34 257.53 41.15C258.15 40.36 261.35 39.39 260.34 43.7Z" stroke="#FFEC00" stroke-width="0.22" stroke-miterlimit="22.93"/>
<path d="M253.85 83.07L241.15 83.9C241.945 83.0326 242.59 82.0391 243.06 80.96C243.48 79.991 243.698 78.9463 243.7 77.89C243.741 76.6786 243.391 75.4861 242.7 74.49C242.436 74.0771 242.072 73.7372 241.642 73.5014C241.212 73.2655 240.73 73.1413 240.24 73.14C239.69 73.1345 239.146 73.2584 238.653 73.5016C238.16 73.7448 237.73 74.1004 237.4 74.54C236.622 75.5485 236.223 76.7975 236.27 78.07C236.26 78.9675 236.416 79.8591 236.73 80.7C237.029 81.4617 237.498 82.1455 238.1 82.7L225.61 84.15L228.45 81.15L229.45 62.46L225.72 60.6L237.59 59.31L234.84 64.86C236.493 63.231 238.368 61.8439 240.41 60.74C241.992 59.8755 243.757 59.3991 245.56 59.35C246.68 59.3068 247.797 59.5071 248.833 59.9369C249.869 60.3668 250.799 61.0161 251.56 61.84C253.136 63.6901 253.944 66.0729 253.82 68.5C253.814 70.7265 253.425 72.9353 252.67 75.03C251.844 77.3024 250.695 79.4443 249.26 81.39L253.85 83.07ZM225 71.51C225.009 72.6871 224.848 73.8594 224.52 74.99C224.205 76.0575 223.726 77.0695 223.1 77.99C221.849 79.84 220.163 81.3544 218.19 82.4C216.236 83.4642 214.045 84.0179 211.82 84.01C208.339 84.1363 204.946 82.9025 202.36 80.57C201.15 79.4689 200.191 78.1201 199.549 76.6154C198.908 75.1107 198.597 73.4854 198.64 71.85C198.583 70.1413 198.891 68.4401 199.545 66.8603C200.198 65.2806 201.182 63.8587 202.43 62.69C205.095 60.2719 208.604 58.9971 212.2 59.14C213.89 59.0751 215.577 59.3466 217.161 59.9389C218.746 60.5311 220.197 61.4323 221.43 62.59C222.615 63.7448 223.545 65.1352 224.16 66.6716C224.775 68.208 225.061 69.8563 225 71.51ZM203.83 68C204.253 68.5444 204.798 68.9826 205.42 69.28C206.079 69.5652 206.792 69.705 207.51 69.69C208.798 69.7205 210.05 69.2674 211.02 68.42C211.475 68.0386 211.839 67.5608 212.086 67.0212C212.334 66.4815 212.458 65.8936 212.45 65.3C212.454 64.8497 212.376 64.4023 212.22 63.98C212.06 63.5983 211.818 63.2568 211.51 62.98C209.856 63.4014 208.277 64.076 206.83 64.98C205.625 65.7597 204.602 66.7897 203.83 68ZM196.51 54C196.51 55 195.71 55.89 194.12 56.56C190.068 57.9198 185.682 57.9198 181.63 56.56C180.03 55.89 179.23 55.03 179.23 54C179.23 52.97 180.03 52.11 181.64 51.43C185.689 50.0702 190.071 50.0702 194.12 51.43C195.71 52.07 196.51 52.93 196.51 54ZM199 83.21L175.43 83.95L180.51 81.89L182.1 62.51L175.89 60.05L198.6 59.22L191.32 61.79L194.16 81.71L199 83.21ZM154.61 79.21L158.24 91.63L161.41 93.09L147.58 94.09L149.58 91.74L150.69 61.82L147.58 60.36L159 59.22L156.43 64.89C157.736 63.1767 159.363 61.7334 161.22 60.64C162.86 59.7096 164.714 59.2204 166.6 59.22C167.87 59.2003 169.127 59.468 170.279 60.0031C171.431 60.5382 172.446 61.3268 173.25 62.31C175.059 64.4787 176.006 67.2376 175.91 70.06C175.922 72.1094 175.556 74.1434 174.83 76.06C174.15 77.8618 173.109 79.5055 171.77 80.89C170.798 81.9078 169.627 82.7145 168.33 83.26C167.028 83.8023 165.63 84.0777 164.22 84.07C162.483 84.0865 160.769 83.6852 159.22 82.9C157.482 81.9497 155.927 80.6967 154.63 79.2L154.61 79.21ZM157.04 71.39C157.354 71.8105 157.761 72.1527 158.23 72.39C158.72 72.6097 159.253 72.7156 159.79 72.7C160.35 72.7101 160.905 72.594 161.414 72.3603C161.923 72.1266 162.373 71.7813 162.73 71.35C163.517 70.3728 163.926 69.1442 163.88 67.89C163.887 67.308 163.792 66.7294 163.6 66.18C163.389 65.6412 163.095 65.1385 162.73 64.69C161.359 65.5382 160.124 66.5902 159.07 67.81C158.17 68.8554 157.487 70.0688 157.06 71.38L157.04 71.39ZM147.21 59.5L143.62 73.94C142.683 72.742 141.509 71.7511 140.17 71.03C138.909 70.3762 137.51 70.0334 136.09 70.03C135.234 70.0009 134.381 70.1484 133.584 70.4632C132.788 70.7781 132.065 71.2535 131.46 71.86C130.862 72.4739 130.394 73.2022 130.085 74.0012C129.776 74.8003 129.631 75.6536 129.66 76.51C129.651 77.6735 129.94 78.82 130.5 79.84C131.225 81.0809 132.154 82.19 133.25 83.12L118.66 83.91L121.26 81.77L122.54 61.66L118.94 60.16L130.45 59.55L128.54 64.73C129.966 63.1609 131.617 61.8128 133.44 60.73C134.84 59.91 136.427 59.4625 138.05 59.43C139.224 59.4202 140.385 59.6838 141.44 60.2C142.47 60.7097 143.367 61.4528 144.06 62.37L147.21 59.5ZM118.15 71.5C118.159 72.6771 117.998 73.8494 117.67 74.98C117.351 76.0479 116.869 77.0599 116.24 77.98C114.989 79.83 113.303 81.3444 111.33 82.39C109.388 83.4477 107.211 84.0012 105 84C101.522 84.1279 98.1316 82.8937 95.5498 80.56C94.3399 79.4589 93.3814 78.1101 92.7395 76.6054C92.0975 75.1007 91.7873 73.4754 91.8299 71.84C91.7714 70.1321 92.0783 68.4313 92.7302 66.8516C93.3821 65.2719 94.3639 63.8496 95.6098 62.68C98.2771 60.2647 101.784 58.9904 105.38 59.13C107.07 59.064 108.757 59.335 110.342 59.9273C111.926 60.5196 113.377 61.4214 114.61 62.58C115.794 63.7372 116.723 65.1297 117.336 66.6678C117.949 68.2059 118.233 69.8554 118.17 71.51L118.15 71.5ZM96.9998 68C97.4253 68.5423 97.9692 68.9802 98.5899 69.28C99.249 69.5652 99.9618 69.705 100.68 69.69C101.968 69.7224 103.221 69.2691 104.19 68.42C104.645 68.0386 105.009 67.5608 105.257 67.0212C105.504 66.4815 105.628 65.8936 105.62 65.3C105.623 64.8507 105.548 64.4042 105.4 63.98C105.237 63.6002 104.995 63.2593 104.69 62.98C103.035 63.3975 101.456 64.0724 100.01 64.98C98.7985 65.7553 97.7712 66.786 96.9998 68ZM90.5699 84.18L88.0699 79.12C86.4815 80.6467 84.654 81.9033 82.6598 82.84C80.8971 83.6364 78.9841 84.0456 77.0498 84.04C73.8219 84.16 70.6725 83.0278 68.2599 80.88C67.1351 79.8646 66.2441 78.6172 65.6485 77.2239C65.0528 75.8306 64.7667 74.3247 64.8098 72.81C64.7965 70.94 65.1358 69.0843 65.8098 67.34C66.4527 65.6745 67.4372 64.1621 68.6999 62.9C69.7974 61.7861 71.1109 60.9081 72.5598 60.32C74.0449 59.7274 75.6309 59.4285 77.2298 59.44C78.8627 59.433 80.4818 59.7385 81.9998 60.34C83.6409 61.0204 85.1607 61.9627 86.4998 63.13L87.4298 59.13L88.7498 69.19C88.2094 68.5762 87.5493 68.0794 86.8098 67.73C86.0834 67.3927 85.2907 67.2219 84.4898 67.23C83.972 67.216 83.4569 67.3092 82.9768 67.5036C82.4967 67.6981 82.062 67.9896 81.6999 68.36C80.9549 69.1511 80.5527 70.2046 80.5808 71.2909C80.6089 72.3772 81.065 73.4084 81.8498 74.16C82.2426 74.5541 82.7106 74.8651 83.2259 75.0747C83.7413 75.2843 84.2935 75.3881 84.8498 75.38C85.6457 75.3802 86.428 75.1734 87.1198 74.78C87.9985 74.2422 88.7852 73.567 89.4499 72.78L90.5699 84.18ZM54.2398 50.36L58.0998 62.56C56.3448 60.9923 54.4464 59.5929 52.4298 58.38C51.1963 57.5585 49.7762 57.0599 48.2998 56.93C47.959 56.9085 47.6174 56.9549 47.2947 57.0665C46.972 57.1781 46.6746 57.3526 46.4198 57.58C46.1895 57.8192 46.011 58.1035 45.8957 58.415C45.7804 58.7265 45.7308 59.0584 45.7498 59.39C45.7677 59.9074 45.9086 60.4131 46.1607 60.8652C46.4129 61.3173 46.7691 61.7029 47.1999 61.99C48.5673 62.9442 50.0948 63.6453 51.7099 64.06C56.2499 65.44 59.3165 66.7733 60.9098 68.06C61.6694 68.6509 62.2815 69.4101 62.698 70.2777C63.1144 71.1453 63.3239 72.0977 63.3098 73.06C63.3098 76.3933 61.6865 79.11 58.4398 81.21C55.1932 83.31 51.0099 84.38 45.8899 84.42C43.2394 84.411 40.6117 83.9301 38.1299 83C35.5511 82.0641 33.1426 80.713 30.9998 79V84.45L26.9998 72.3C28.6896 73.7115 30.5551 74.8981 32.5498 75.83C34.1127 76.5837 35.8157 77.0026 37.5498 77.06C38.8727 77.1491 40.1879 76.7974 41.2898 76.06C41.7294 75.7326 42.0823 75.3027 42.3176 74.8077C42.5529 74.3127 42.6635 73.7676 42.6399 73.22C42.6622 72.7161 42.5775 72.2131 42.3914 71.7442C42.2052 71.2754 41.9218 70.8513 41.5598 70.5C40.1098 69.4762 38.477 68.7396 36.7498 68.33C33.801 67.5263 31.0478 66.1276 28.6598 64.22C27.8342 63.5405 27.1687 62.6872 26.7106 61.7209C26.2525 60.7547 26.0133 59.6993 26.0099 58.63C26.0035 57.321 26.3251 56.0312 26.9452 54.8784C27.5653 53.7255 28.4642 52.7463 29.5598 52.03C32.2841 50.2118 35.5179 49.3113 38.7898 49.46C41.2916 49.4613 43.7722 49.9188 46.1098 50.81C48.7397 51.8409 51.2108 53.238 53.4499 54.96L54.2398 50.36Z" fill="white"/>
<path d="M253.85 83.07L241.15 83.9C241.945 83.0326 242.59 82.0391 243.06 80.96C243.48 79.991 243.698 78.9463 243.7 77.89C243.741 76.6786 243.391 75.4861 242.7 74.49C242.435 74.0771 242.072 73.7372 241.642 73.5014C241.212 73.2655 240.73 73.1413 240.24 73.14C239.69 73.1345 239.146 73.2584 238.653 73.5016C238.16 73.7448 237.73 74.1004 237.4 74.54C236.622 75.5485 236.223 76.7975 236.27 78.07C236.26 78.9675 236.416 79.8591 236.73 80.7C237.029 81.4617 237.498 82.1455 238.1 82.7L225.61 84.15L228.45 81.15L229.45 62.46L225.72 60.6L237.59 59.31L234.84 64.86C236.493 63.231 238.368 61.8439 240.41 60.74C241.992 59.8755 243.757 59.3991 245.56 59.35C246.68 59.3068 247.797 59.5071 248.833 59.9369C249.869 60.3668 250.799 61.0161 251.56 61.84C253.136 63.6901 253.944 66.0729 253.82 68.5C253.814 70.7265 253.425 72.9353 252.67 75.03C251.844 77.3024 250.695 79.4443 249.26 81.39L253.85 83.07ZM225 71.51C225.009 72.6871 224.848 73.8594 224.52 74.99C224.205 76.0575 223.726 77.0695 223.1 77.99C221.849 79.84 220.163 81.3544 218.19 82.4C216.236 83.4642 214.045 84.0179 211.82 84.01C208.339 84.1363 204.946 82.9025 202.36 80.57C201.15 79.4689 200.191 78.1201 199.549 76.6154C198.908 75.1107 198.597 73.4854 198.64 71.85C198.583 70.1413 198.891 68.4401 199.545 66.8603C200.198 65.2806 201.182 63.8587 202.43 62.69C205.095 60.2719 208.604 58.9971 212.2 59.14C213.89 59.0751 215.577 59.3466 217.161 59.9389C218.746 60.5311 220.197 61.4323 221.43 62.59C222.615 63.7448 223.545 65.1352 224.16 66.6716C224.775 68.208 225.061 69.8563 225 71.51V71.51ZM203.83 68C204.253 68.5444 204.798 68.9826 205.42 69.28C206.079 69.5652 206.792 69.705 207.51 69.69C208.798 69.7205 210.05 69.2674 211.02 68.42C211.475 68.0386 211.839 67.5608 212.086 67.0212C212.334 66.4815 212.458 65.8936 212.45 65.3C212.454 64.8497 212.376 64.4023 212.22 63.98C212.06 63.5983 211.818 63.2568 211.51 62.98C209.856 63.4014 208.277 64.076 206.83 64.98C205.625 65.7597 204.602 66.7897 203.83 68V68ZM196.51 54C196.51 55 195.71 55.89 194.12 56.56C190.068 57.9198 185.682 57.9198 181.63 56.56C180.03 55.89 179.23 55.03 179.23 54C179.23 52.97 180.03 52.11 181.64 51.43C185.689 50.0702 190.071 50.0702 194.12 51.43C195.71 52.07 196.51 52.93 196.51 54ZM199 83.21L175.43 83.95L180.51 81.89L182.1 62.51L175.89 60.05L198.6 59.22L191.32 61.79L194.16 81.71L199 83.21ZM154.61 79.21L158.24 91.63L161.41 93.09L147.58 94.09L149.58 91.74L150.69 61.82L147.58 60.36L159 59.22L156.43 64.89C157.736 63.1767 159.363 61.7334 161.22 60.64C162.86 59.7096 164.714 59.2204 166.6 59.22C167.87 59.2003 169.127 59.468 170.279 60.0031C171.431 60.5382 172.446 61.3268 173.25 62.31C175.059 64.4787 176.006 67.2376 175.91 70.06C175.922 72.1094 175.556 74.1434 174.83 76.06C174.15 77.8618 173.109 79.5055 171.77 80.89C170.798 81.9078 169.627 82.7145 168.33 83.26C167.028 83.8023 165.63 84.0777 164.22 84.07C162.483 84.0865 160.769 83.6852 159.22 82.9C157.482 81.9497 155.927 80.6967 154.63 79.2L154.61 79.21ZM157.04 71.39C157.354 71.8105 157.761 72.1527 158.23 72.39C158.72 72.6097 159.253 72.7156 159.79 72.7C160.35 72.7101 160.905 72.594 161.414 72.3603C161.923 72.1266 162.373 71.7813 162.73 71.35C163.517 70.3728 163.926 69.1442 163.88 67.89C163.887 67.308 163.792 66.7294 163.6 66.18C163.389 65.6412 163.095 65.1385 162.73 64.69C161.359 65.5382 160.124 66.5902 159.07 67.81C158.17 68.8554 157.487 70.0688 157.06 71.38L157.04 71.39ZM147.21 59.5L143.62 73.94C142.683 72.742 141.509 71.7511 140.17 71.03C138.909 70.3762 137.51 70.0334 136.09 70.03C135.234 70.0009 134.381 70.1484 133.584 70.4632C132.788 70.7781 132.065 71.2535 131.46 71.86C130.862 72.4739 130.394 73.2022 130.085 74.0012C129.776 74.8003 129.631 75.6536 129.66 76.51C129.651 77.6735 129.94 78.82 130.5 79.84C131.225 81.0809 132.154 82.19 133.25 83.12L118.66 83.91L121.26 81.77L122.54 61.66L118.94 60.16L130.45 59.55L128.54 64.73C129.966 63.1609 131.617 61.8128 133.44 60.73C134.84 59.91 136.427 59.4625 138.05 59.43C139.224 59.4202 140.385 59.6838 141.44 60.2C142.47 60.7097 143.367 61.4528 144.06 62.37L147.21 59.5ZM118.15 71.5C118.159 72.6771 117.998 73.8494 117.67 74.98C117.351 76.0479 116.869 77.0599 116.24 77.98C114.989 79.83 113.303 81.3444 111.33 82.39C109.388 83.4477 107.211 84.0012 105 84C101.522 84.1279 98.1316 82.8937 95.5498 80.56C94.3399 79.4589 93.3814 78.1101 92.7395 76.6054C92.0976 75.1007 91.7873 73.4754 91.8299 71.84C91.7714 70.1321 92.0783 68.4313 92.7302 66.8516C93.3821 65.2719 94.3639 63.8496 95.6098 62.68C98.2771 60.2647 101.784 58.9904 105.38 59.13C107.07 59.064 108.757 59.335 110.342 59.9273C111.926 60.5196 113.377 61.4214 114.61 62.58C115.794 63.7372 116.723 65.1297 117.336 66.6678C117.949 68.2059 118.233 69.8554 118.17 71.51L118.15 71.5ZM96.9998 68C97.4253 68.5423 97.9692 68.9801 98.5899 69.28C99.249 69.5652 99.9618 69.705 100.68 69.69C101.968 69.7224 103.221 69.2691 104.19 68.42C104.645 68.0386 105.009 67.5608 105.257 67.0212C105.504 66.4815 105.628 65.8936 105.62 65.3C105.623 64.8507 105.548 64.4042 105.4 63.98C105.237 63.6002 104.995 63.2593 104.69 62.98C103.035 63.3975 101.456 64.0724 100.01 64.98C98.7985 65.7553 97.7712 66.786 96.9998 68V68ZM90.5699 84.18L88.0699 79.12C86.4815 80.6467 84.654 81.9033 82.6598 82.84C80.8971 83.6364 78.9841 84.0456 77.0498 84.04C73.8219 84.16 70.6725 83.0278 68.2599 80.88C67.1351 79.8646 66.2441 78.6172 65.6485 77.2239C65.0528 75.8306 64.7667 74.3247 64.8098 72.81C64.7965 70.94 65.1358 69.0843 65.8098 67.34C66.4527 65.6745 67.4372 64.1621 68.6999 62.9C69.7974 61.7861 71.1109 60.9081 72.5598 60.32C74.0449 59.7274 75.6309 59.4285 77.2298 59.44C78.8627 59.433 80.4818 59.7385 81.9998 60.34C83.6409 61.0204 85.1607 61.9627 86.4998 63.13L87.4298 59.13L88.7498 69.19C88.2094 68.5762 87.5493 68.0794 86.8098 67.73C86.0834 67.3927 85.2907 67.2219 84.4898 67.23C83.972 67.216 83.4569 67.3092 82.9768 67.5036C82.4967 67.6981 82.062 67.9896 81.6999 68.36C80.9549 69.1511 80.5527 70.2046 80.5808 71.2909C80.6089 72.3772 81.065 73.4084 81.8498 74.16C82.2426 74.5541 82.7106 74.8651 83.2259 75.0747C83.7413 75.2843 84.2935 75.3881 84.8498 75.38C85.6457 75.3802 86.428 75.1734 87.1198 74.78C87.9985 74.2422 88.7852 73.567 89.4499 72.78L90.5699 84.18ZM54.2398 50.36L58.0998 62.56C56.3448 60.9923 54.4464 59.5929 52.4298 58.38C51.1963 57.5585 49.7762 57.0599 48.2998 56.93C47.959 56.9085 47.6174 56.9549 47.2947 57.0665C46.972 57.1781 46.6746 57.3526 46.4198 57.58C46.1895 57.8192 46.011 58.1035 45.8957 58.415C45.7804 58.7265 45.7308 59.0584 45.7498 59.39C45.7677 59.9074 45.9086 60.4131 46.1607 60.8652C46.4129 61.3173 46.7691 61.7029 47.1999 61.99C48.5673 62.9442 50.0948 63.6453 51.7099 64.06C56.2499 65.44 59.3165 66.7733 60.9098 68.06C61.6694 68.6509 62.2815 69.4101 62.698 70.2777C63.1144 71.1453 63.3239 72.0977 63.3098 73.06C63.3098 76.3933 61.6865 79.11 58.4398 81.21C55.1932 83.31 51.0099 84.38 45.8899 84.42C43.2394 84.411 40.6117 83.9301 38.1299 83C35.5511 82.0641 33.1426 80.713 30.9998 79V84.45L26.9998 72.3C28.6896 73.7115 30.5551 74.8981 32.5498 75.83C34.1127 76.5837 35.8157 77.0026 37.5498 77.06C38.8727 77.1491 40.1879 76.7974 41.2898 76.06C41.7294 75.7326 42.0823 75.3027 42.3176 74.8077C42.5529 74.3127 42.6635 73.7676 42.6399 73.22C42.6622 72.7161 42.5775 72.2131 42.3914 71.7442C42.2052 71.2754 41.9218 70.8513 41.5598 70.5C40.1098 69.4762 38.477 68.7396 36.7498 68.33C33.801 67.5263 31.0478 66.1276 28.6598 64.22C27.8342 63.5405 27.1687 62.6872 26.7106 61.7209C26.2525 60.7547 26.0133 59.6993 26.0099 58.63C26.0035 57.321 26.3251 56.0312 26.9452 54.8784C27.5653 53.7255 28.4642 52.7463 29.5598 52.03C32.2841 50.2118 35.5179 49.3113 38.7898 49.46C41.2916 49.4613 43.7722 49.9188 46.1098 50.81C48.7397 51.8409 51.2108 53.238 53.4499 54.96L54.2398 50.36Z" stroke="#1A1A18" stroke-width="1.42" stroke-miterlimit="22.93"/>
<path d="M208.71 126.18C208.516 126.187 208.322 126.156 208.14 126.087C207.958 126.018 207.791 125.914 207.65 125.78C207.51 125.655 207.4 125.501 207.327 125.327C207.254 125.154 207.221 124.967 207.23 124.78C207.225 124.489 207.205 124.199 207.17 123.91C207.17 123.49 207.17 123.2 207.17 123.04C207.17 122.5 207.17 121.81 207.17 120.96C207.17 120.64 207.17 119.46 207.17 117.42C206.83 117.42 206.5 117.42 206.17 117.42C205.13 117.42 204.13 117.4 203.17 117.36V119.45C203.246 120.997 203.074 122.547 202.66 124.04C202.455 124.66 202.048 125.194 201.504 125.556C200.961 125.918 200.311 126.089 199.66 126.04C199.106 126.049 198.557 125.925 198.06 125.68C197.781 125.563 197.544 125.365 197.378 125.112C197.213 124.859 197.126 124.562 197.13 124.26C197.129 124.087 197.162 123.915 197.229 123.755C197.296 123.595 197.395 123.451 197.519 123.33C197.643 123.21 197.791 123.115 197.953 123.054C198.114 122.992 198.287 122.963 198.46 122.97C198.677 122.985 198.89 123.036 199.09 123.12C199.271 123.2 199.463 123.251 199.66 123.27C200.14 123.27 200.38 122.36 200.38 120.53C200.38 120.01 200.38 119.24 200.27 118.21C200.16 117.18 200.16 116.4 200.16 115.89C200.153 115.7 200.19 115.511 200.268 115.338C200.347 115.164 200.463 115.011 200.61 114.89C200.924 114.646 201.312 114.515 201.71 114.52H202.46L203.2 114.57C203.98 114.57 204.97 114.57 206.2 114.57C206.596 114.554 206.991 114.507 207.38 114.43C207.769 114.352 208.164 114.306 208.56 114.29C209.63 114.29 210.17 114.74 210.17 115.64C210.17 116.22 210.17 117.08 210.17 118.23C210.17 119.38 210.17 120.23 210.17 120.8C210.17 121.61 210.17 122.29 210.17 122.8C210.17 122.97 210.17 123.28 210.25 123.73C210.33 124.18 210.31 124.42 210.31 124.64C210.315 124.828 210.279 125.015 210.205 125.187C210.131 125.36 210.02 125.514 209.88 125.64C209.737 125.811 209.558 125.949 209.356 126.042C209.154 126.135 208.933 126.183 208.71 126.18ZM191.17 117C190.68 117.014 190.2 117.144 189.77 117.381C189.341 117.617 188.974 117.953 188.7 118.36C188.02 119.212 187.649 120.27 187.65 121.36C187.648 121.675 187.72 121.985 187.861 122.267C188.002 122.548 188.207 122.793 188.46 122.98C189.037 123.409 189.741 123.631 190.46 123.61C190.934 123.598 191.398 123.467 191.808 123.229C192.219 122.991 192.563 122.655 192.81 122.25C193.441 121.378 193.775 120.326 193.76 119.25C193.802 118.93 193.775 118.604 193.68 118.295C193.585 117.986 193.425 117.701 193.21 117.46C192.596 117.095 191.882 116.934 191.17 117ZM190.51 126.43C189.029 126.467 187.579 125.998 186.4 125.1C185.822 124.67 185.354 124.108 185.038 123.461C184.721 122.814 184.564 122.1 184.58 121.38C184.58 119.66 185.173 117.993 186.26 116.66C186.825 115.891 187.565 115.267 188.419 114.841C189.273 114.415 190.216 114.198 191.17 114.21C194.983 114.21 196.887 115.877 196.88 119.21C196.891 120.899 196.35 122.546 195.34 123.9C194.809 124.689 194.089 125.333 193.245 125.773C192.401 126.213 191.461 126.436 190.51 126.42V126.43ZM178.93 117.33C178.525 117.331 178.128 117.437 177.777 117.639C177.426 117.841 177.134 118.131 176.93 118.48C176.463 119.225 176.226 120.091 176.25 120.97C176.232 121.608 176.418 122.235 176.78 122.76C176.95 123.01 177.181 123.213 177.45 123.351C177.719 123.489 178.018 123.557 178.32 123.55C178.686 123.566 179.049 123.486 179.375 123.32C179.701 123.153 179.978 122.905 180.18 122.6C180.597 121.937 180.803 121.163 180.77 120.38C180.74 118.34 180.13 117.32 178.93 117.32V117.33ZM182.33 112.44C181.771 112.52 181.205 112.547 180.64 112.52C179.873 112.475 179.109 112.652 178.44 113.03C177.847 113.454 177.394 114.046 177.14 114.73C177.76 114.529 178.409 114.434 179.06 114.45C179.777 114.426 180.487 114.599 181.111 114.952C181.736 115.305 182.251 115.823 182.6 116.45C183.26 117.609 183.588 118.927 183.55 120.26C183.584 121.747 183.139 123.206 182.28 124.42C181.831 125.059 181.231 125.576 180.533 125.925C179.834 126.274 179.06 126.444 178.28 126.42C177.476 126.455 176.677 126.269 175.972 125.881C175.266 125.493 174.681 124.918 174.28 124.22C173.536 122.766 173.191 121.141 173.28 119.51C173.267 117.474 173.722 115.462 174.61 113.63C175.75 111.28 177.32 110.06 179.34 109.97C179.51 109.97 179.82 109.97 180.25 109.97C180.658 109.982 181.067 109.956 181.47 109.89C181.535 109.628 181.687 109.395 181.902 109.23C182.116 109.064 182.38 108.976 182.65 108.98C182.882 108.98 183.11 109.034 183.318 109.136C183.526 109.238 183.708 109.387 183.85 109.57C184.14 109.888 184.307 110.3 184.32 110.73C184.23 111.49 183.6 112.08 182.33 112.43V112.44ZM171.12 117.34H170.27H169.41H169.06C169.2 120.53 169.28 122.79 169.28 124.1C169.28 125.69 168.76 126.49 167.72 126.49C167.356 126.491 167.004 126.368 166.72 126.14C166.566 126.024 166.443 125.873 166.361 125.698C166.279 125.524 166.241 125.332 166.25 125.14C166.25 124.89 166.25 124.51 166.25 124.01C166.25 123.51 166.25 123.12 166.25 122.87C166.25 121.87 166.18 120.05 166.05 117.34H165.05C164.512 117.367 163.973 117.296 163.46 117.13C163.21 117.044 162.996 116.878 162.851 116.657C162.706 116.436 162.639 116.173 162.66 115.91C162.657 115.537 162.801 115.178 163.06 114.91C163.189 114.776 163.345 114.669 163.517 114.597C163.689 114.525 163.874 114.488 164.06 114.49H170.36C171.75 114.49 172.44 114.96 172.44 115.91C172.444 116.096 172.409 116.28 172.339 116.452C172.268 116.624 172.163 116.78 172.03 116.91C171.787 117.155 171.464 117.304 171.12 117.33V117.34ZM160.19 126.17C159.798 126.18 159.418 126.037 159.13 125.77C158.989 125.646 158.877 125.491 158.802 125.318C158.728 125.145 158.693 124.958 158.7 124.77C158.7 124.15 158.7 123.04 158.7 121.44H158.34C156.838 121.435 155.34 121.59 153.87 121.9C153.87 122.18 153.87 122.68 153.76 123.41C153.65 124.14 153.67 124.53 153.67 124.94C153.677 125.127 153.643 125.314 153.57 125.486C153.498 125.659 153.388 125.814 153.25 125.94C153.109 126.073 152.942 126.178 152.76 126.246C152.578 126.315 152.384 126.347 152.19 126.34C151.796 126.354 151.413 126.214 151.12 125.95C150.984 125.822 150.877 125.667 150.804 125.494C150.732 125.322 150.697 125.137 150.7 124.95C150.711 124.615 150.745 124.281 150.8 123.95C150.863 123.62 150.9 123.286 150.91 122.95C150.91 122.55 150.91 121.95 150.91 121.15C150.91 120.35 150.91 119.75 150.91 119.36V117.5C150.91 116.69 150.91 116.07 150.91 115.65C150.903 115.463 150.937 115.276 151.01 115.104C151.082 114.931 151.192 114.776 151.33 114.65C151.472 114.517 151.638 114.412 151.82 114.344C152.002 114.275 152.196 114.243 152.39 114.25C152.584 114.243 152.778 114.274 152.96 114.343C153.142 114.412 153.309 114.516 153.45 114.65C153.591 114.774 153.703 114.929 153.778 115.102C153.852 115.275 153.887 115.462 153.88 115.65C153.88 116.1 153.88 116.65 153.88 117.34C153.88 118.29 153.88 118.84 153.88 119.02C155.456 118.732 157.058 118.608 158.66 118.65V118.41C158.66 118.05 158.66 117.53 158.66 116.86C158.66 116.19 158.66 115.67 158.66 115.32C158.655 115.133 158.689 114.947 158.762 114.774C158.834 114.602 158.943 114.447 159.08 114.32C159.373 114.057 159.757 113.917 160.15 113.93C160.541 113.918 160.921 114.058 161.21 114.32C161.347 114.447 161.456 114.602 161.528 114.774C161.601 114.947 161.636 115.133 161.63 115.32C161.63 115.68 161.63 116.19 161.63 116.87C161.63 117.55 161.63 118.06 161.63 118.41C161.63 119.14 161.63 120.2 161.63 121.58C161.63 122.96 161.63 124.03 161.63 124.75C161.637 124.937 161.603 125.124 161.53 125.296C161.458 125.469 161.348 125.624 161.21 125.75C160.933 126.009 160.569 126.155 160.19 126.16V126.17ZM148.25 110.32C148.171 110.878 147.925 111.398 147.545 111.814C147.165 112.229 146.668 112.521 146.12 112.65C145.017 113.042 143.851 113.228 142.68 113.2C141.624 113.221 140.592 112.887 139.75 112.25C139.35 111.991 139.02 111.638 138.79 111.221C138.56 110.804 138.436 110.336 138.43 109.86C138.429 109.72 138.46 109.581 138.52 109.454C138.581 109.328 138.67 109.217 138.78 109.13C139.031 108.942 139.336 108.84 139.65 108.84C139.964 108.84 140.269 108.942 140.52 109.13C140.634 109.214 140.726 109.324 140.788 109.451C140.851 109.578 140.882 109.718 140.88 109.86C140.889 110.044 140.944 110.223 141.04 110.38C141.136 110.537 141.27 110.668 141.43 110.76C141.799 111.019 142.239 111.156 142.69 111.15C144.55 111.15 145.61 110.76 145.85 109.99C145.919 109.736 146.075 109.514 146.29 109.362C146.506 109.211 146.767 109.139 147.03 109.16C147.202 109.15 147.374 109.174 147.535 109.233C147.697 109.291 147.845 109.382 147.97 109.5C148.078 109.603 148.16 109.73 148.209 109.871C148.258 110.012 148.272 110.162 148.25 110.31V110.32ZM149.06 125C149.067 125.187 149.033 125.374 148.96 125.546C148.888 125.719 148.778 125.874 148.64 126C148.345 126.257 147.967 126.399 147.575 126.399C147.183 126.399 146.805 126.257 146.51 126C146.37 125.875 146.259 125.72 146.184 125.548C146.11 125.375 146.075 125.188 146.08 125C146.08 124.57 146.08 123.93 146.15 123.08C146.22 122.23 146.21 121.58 146.21 121.16C146.21 120.74 146.21 120.35 146.16 119.92C145.143 121.377 143.947 122.7 142.6 123.86C141.6 124.61 140.95 125.21 140.48 125.65C140.289 125.856 140.059 126.021 139.803 126.136C139.547 126.251 139.271 126.314 138.99 126.32C138.615 126.325 138.247 126.221 137.93 126.02C137.761 125.914 137.623 125.767 137.528 125.591C137.433 125.416 137.386 125.219 137.39 125.02C137.39 123.13 137.39 121.17 137.28 119.12C137.17 117.07 137.17 115.95 137.17 115.99C137.165 115.804 137.199 115.619 137.27 115.447C137.34 115.275 137.446 115.119 137.58 114.99C137.723 114.856 137.891 114.751 138.075 114.683C138.259 114.614 138.454 114.582 138.65 114.59C139.006 114.565 139.357 114.679 139.63 114.909C139.902 115.138 140.075 115.465 140.11 115.82C140.11 115.94 140.17 116.63 140.21 117.89L140.31 121.96C141.35 121.002 142.328 119.98 143.24 118.9C143.48 118.61 144.37 117.52 145.9 115.62C146.087 115.342 146.336 115.111 146.628 114.946C146.919 114.781 147.245 114.686 147.58 114.67C147.972 114.663 148.351 114.806 148.64 115.07C148.777 115.197 148.885 115.352 148.958 115.525C149.03 115.697 149.065 115.883 149.06 116.07C149.06 116.81 149.06 117.91 149.11 119.39C149.16 120.87 149.11 121.98 149.11 122.72C149.11 122.97 149.11 123.36 149.11 123.87C149.11 124.38 149.06 124.73 149.06 125ZM130.37 117.22C129.739 117.208 129.128 117.445 128.67 117.88C128.132 118.442 127.744 119.129 127.54 119.88L129.94 118.88C130.732 118.533 131.497 118.129 132.23 117.67C131.661 117.357 131.02 117.198 130.37 117.21V117.22ZM130.66 126.22C129.175 126.286 127.709 125.861 126.49 125.01C125.905 124.574 125.437 124.002 125.125 123.343C124.812 122.684 124.667 121.958 124.7 121.23C124.653 119.597 125.153 117.996 126.12 116.68C126.607 116.016 127.248 115.48 127.989 115.119C128.73 114.759 129.547 114.584 130.37 114.61C131.426 114.574 132.476 114.779 133.44 115.21C133.886 115.379 134.275 115.673 134.559 116.057C134.843 116.44 135.011 116.897 135.042 117.374C135.074 117.85 134.968 118.325 134.737 118.743C134.506 119.161 134.16 119.503 133.74 119.73C132.976 120.198 132.177 120.606 131.35 120.95L127.76 122.53C128.099 122.898 128.52 123.179 128.99 123.35C129.524 123.547 130.091 123.642 130.66 123.63C131.502 123.655 132.335 123.451 133.07 123.04C133.491 122.747 133.98 122.565 134.49 122.51C134.637 122.493 134.786 122.509 134.927 122.557C135.067 122.605 135.195 122.683 135.301 122.787C135.407 122.89 135.489 123.016 135.541 123.155C135.593 123.294 135.613 123.442 135.6 123.59C135.6 124.4 135 125.07 133.82 125.59C132.823 126.022 131.747 126.243 130.66 126.24V126.22ZM123.5 110.62C123.5 111.62 122.75 112.11 121.24 112.04C121.16 113.073 121.12 114.483 121.12 116.27C121.12 116.64 121.12 117.57 121.23 119.05C121.34 120.53 121.34 121.84 121.34 122.96C121.35 123.295 121.38 123.629 121.43 123.96C121.488 124.29 121.521 124.625 121.53 124.96C121.534 125.148 121.497 125.334 121.423 125.506C121.349 125.679 121.239 125.833 121.1 125.96C120.811 126.224 120.432 126.367 120.04 126.36C119.856 126.378 119.669 126.357 119.493 126.299C119.317 126.241 119.156 126.147 119.018 126.023C118.881 125.899 118.771 125.747 118.695 125.578C118.62 125.408 118.581 125.225 118.58 125.04C118.47 124.338 118.4 123.63 118.37 122.92C118.37 121.82 118.37 120.55 118.26 119.11C118.15 117.67 118.15 116.71 118.15 116.23C118.15 114.37 118.15 112.94 118.26 111.93C117.439 112.001 116.614 112.028 115.79 112.01C114.04 112.01 112.34 112.01 110.69 111.91C110.69 112.19 110.75 112.61 110.79 113.17C110.9 116.65 110.95 118.54 110.95 118.82C110.95 119.1 110.95 119.62 110.89 120.22C110.83 120.82 110.81 121.34 110.8 121.62C110.79 121.9 110.8 122.26 110.8 122.7C110.8 123.29 110.8 123.7 110.8 123.79C110.83 124.352 110.776 124.914 110.64 125.46C110.555 125.744 110.374 125.989 110.128 126.154C109.881 126.318 109.585 126.391 109.29 126.36C108.898 126.371 108.517 126.228 108.23 125.96C108.091 125.833 107.981 125.679 107.907 125.506C107.833 125.334 107.796 125.148 107.8 124.96C107.8 123.27 107.8 122.13 107.8 121.56C107.8 121.29 107.8 120.83 107.89 120.2C107.98 119.57 107.95 119.2 107.95 118.83C107.95 118.46 107.9 116.71 107.79 113.25C107.79 113.25 107.75 112.79 107.67 111.87H106.53C106.335 111.875 106.141 111.841 105.959 111.771C105.777 111.7 105.611 111.595 105.47 111.46C105.334 111.332 105.227 111.177 105.154 111.004C105.082 110.832 105.046 110.647 105.05 110.46C105.05 109.46 105.8 109 107.28 109H108.11C108.67 109 109.5 109 110.61 109.06C111.72 109.12 112.55 109.13 113.11 109.13H121.98C122.375 109.118 122.76 109.262 123.05 109.53C123.204 109.669 123.325 109.841 123.403 110.033C123.481 110.226 123.514 110.433 123.5 110.64V110.62Z" fill="#2F2482"/>
<path d="M208.71 126.18C208.516 126.187 208.322 126.156 208.14 126.087C207.958 126.018 207.791 125.914 207.65 125.78C207.51 125.655 207.4 125.501 207.327 125.327C207.254 125.154 207.221 124.967 207.23 124.78C207.225 124.489 207.205 124.199 207.17 123.91C207.17 123.49 207.17 123.2 207.17 123.04C207.17 122.5 207.17 121.81 207.17 120.96C207.17 120.64 207.17 119.46 207.17 117.42C206.83 117.42 206.5 117.42 206.17 117.42C205.13 117.42 204.13 117.4 203.17 117.36V119.45C203.246 120.997 203.074 122.547 202.66 124.04C202.455 124.66 202.048 125.194 201.504 125.556C200.961 125.918 200.311 126.089 199.66 126.04C199.106 126.049 198.557 125.925 198.06 125.68C197.781 125.563 197.544 125.365 197.378 125.112C197.213 124.859 197.126 124.562 197.13 124.26C197.129 124.087 197.162 123.915 197.229 123.755C197.296 123.595 197.395 123.451 197.519 123.33C197.643 123.21 197.791 123.115 197.953 123.054C198.114 122.992 198.287 122.963 198.46 122.97C198.677 122.985 198.89 123.036 199.09 123.12C199.271 123.2 199.463 123.251 199.66 123.27C200.14 123.27 200.38 122.36 200.38 120.53C200.38 120.01 200.38 119.24 200.27 118.21C200.16 117.18 200.16 116.4 200.16 115.89C200.153 115.7 200.19 115.511 200.268 115.338C200.347 115.164 200.463 115.011 200.61 114.89C200.924 114.646 201.312 114.515 201.71 114.52H202.46L203.2 114.57C203.98 114.57 204.97 114.57 206.2 114.57C206.596 114.554 206.991 114.507 207.38 114.43C207.769 114.352 208.164 114.306 208.56 114.29C209.63 114.29 210.17 114.74 210.17 115.64C210.17 116.22 210.17 117.08 210.17 118.23C210.17 119.38 210.17 120.23 210.17 120.8C210.17 121.61 210.17 122.29 210.17 122.8C210.17 122.97 210.17 123.28 210.25 123.73C210.33 124.18 210.31 124.42 210.31 124.64C210.315 124.828 210.279 125.015 210.205 125.187C210.131 125.36 210.02 125.514 209.88 125.64C209.737 125.811 209.558 125.949 209.356 126.042C209.154 126.135 208.933 126.183 208.71 126.18ZM191.17 117C190.68 117.014 190.2 117.144 189.77 117.381C189.341 117.617 188.974 117.953 188.7 118.36C188.02 119.212 187.649 120.27 187.65 121.36C187.648 121.675 187.72 121.985 187.861 122.267C188.002 122.548 188.207 122.793 188.46 122.98C189.037 123.409 189.741 123.631 190.46 123.61C190.934 123.598 191.398 123.467 191.808 123.229C192.219 122.991 192.563 122.655 192.81 122.25C193.441 121.378 193.775 120.326 193.76 119.25C193.802 118.93 193.775 118.604 193.68 118.295C193.585 117.986 193.425 117.701 193.21 117.46C192.596 117.095 191.882 116.934 191.17 117V117ZM190.51 126.43C189.029 126.467 187.579 125.998 186.4 125.1C185.822 124.67 185.354 124.108 185.038 123.461C184.721 122.814 184.564 122.1 184.58 121.38C184.58 119.66 185.173 117.993 186.26 116.66C186.825 115.891 187.565 115.267 188.419 114.841C189.273 114.415 190.216 114.198 191.17 114.21C194.983 114.21 196.887 115.877 196.88 119.21C196.891 120.899 196.35 122.546 195.34 123.9C194.809 124.689 194.089 125.333 193.245 125.773C192.401 126.213 191.461 126.436 190.51 126.42V126.43ZM178.93 117.33C178.525 117.331 178.128 117.437 177.777 117.639C177.426 117.841 177.134 118.131 176.93 118.48C176.463 119.225 176.226 120.091 176.25 120.97C176.232 121.608 176.418 122.235 176.78 122.76C176.95 123.01 177.181 123.213 177.45 123.351C177.719 123.489 178.018 123.557 178.32 123.55C178.686 123.566 179.049 123.486 179.375 123.32C179.701 123.153 179.978 122.905 180.18 122.6C180.597 121.937 180.803 121.163 180.77 120.38C180.74 118.34 180.13 117.32 178.93 117.32V117.33ZM182.33 112.44C181.771 112.52 181.205 112.547 180.64 112.52C179.873 112.475 179.109 112.652 178.44 113.03C177.847 113.454 177.394 114.046 177.14 114.73C177.76 114.529 178.409 114.434 179.06 114.45C179.777 114.426 180.487 114.599 181.111 114.952C181.736 115.305 182.251 115.823 182.6 116.45C183.26 117.609 183.588 118.927 183.55 120.26C183.584 121.747 183.139 123.206 182.28 124.42C181.831 125.059 181.231 125.576 180.533 125.925C179.834 126.274 179.06 126.444 178.28 126.42C177.476 126.455 176.677 126.269 175.972 125.881C175.266 125.493 174.681 124.918 174.28 124.22C173.536 122.766 173.191 121.141 173.28 119.51C173.267 117.474 173.722 115.462 174.61 113.63C175.75 111.28 177.32 110.06 179.34 109.97C179.51 109.97 179.82 109.97 180.25 109.97C180.658 109.982 181.067 109.956 181.47 109.89C181.535 109.628 181.687 109.395 181.902 109.23C182.116 109.064 182.38 108.976 182.65 108.98C182.882 108.98 183.11 109.034 183.318 109.136C183.526 109.238 183.708 109.387 183.85 109.57C184.14 109.888 184.307 110.3 184.32 110.73C184.23 111.49 183.6 112.08 182.33 112.43V112.44ZM171.12 117.34H170.27H169.41H169.06C169.2 120.53 169.28 122.79 169.28 124.1C169.28 125.69 168.76 126.49 167.72 126.49C167.356 126.491 167.004 126.368 166.72 126.14C166.566 126.024 166.443 125.873 166.361 125.698C166.279 125.524 166.241 125.332 166.25 125.14C166.25 124.89 166.25 124.51 166.25 124.01C166.25 123.51 166.25 123.12 166.25 122.87C166.25 121.87 166.18 120.05 166.05 117.34H165.05C164.512 117.367 163.973 117.296 163.46 117.13C163.21 117.044 162.996 116.878 162.851 116.657C162.706 116.436 162.639 116.173 162.66 115.91C162.657 115.537 162.801 115.178 163.06 114.91C163.189 114.776 163.345 114.669 163.517 114.597C163.689 114.525 163.874 114.488 164.06 114.49H170.36C171.75 114.49 172.44 114.96 172.44 115.91C172.444 116.096 172.409 116.28 172.339 116.452C172.268 116.624 172.163 116.78 172.03 116.91C171.787 117.155 171.464 117.304 171.12 117.33V117.34ZM160.19 126.17C159.798 126.18 159.418 126.037 159.13 125.77C158.989 125.646 158.877 125.491 158.802 125.318C158.728 125.145 158.693 124.958 158.7 124.77C158.7 124.15 158.7 123.04 158.7 121.44H158.34C156.838 121.435 155.34 121.59 153.87 121.9C153.87 122.18 153.87 122.68 153.76 123.41C153.65 124.14 153.67 124.53 153.67 124.94C153.677 125.127 153.643 125.314 153.57 125.486C153.498 125.659 153.388 125.814 153.25 125.94C153.109 126.073 152.942 126.178 152.76 126.246C152.578 126.315 152.384 126.347 152.19 126.34C151.796 126.354 151.413 126.214 151.12 125.95C150.984 125.822 150.877 125.667 150.804 125.494C150.732 125.322 150.697 125.137 150.7 124.95C150.711 124.615 150.745 124.281 150.8 123.95C150.863 123.62 150.9 123.286 150.91 122.95C150.91 122.55 150.91 121.95 150.91 121.15C150.91 120.35 150.91 119.75 150.91 119.36V117.5C150.91 116.69 150.91 116.07 150.91 115.65C150.903 115.463 150.937 115.276 151.01 115.104C151.082 114.931 151.192 114.776 151.33 114.65C151.472 114.517 151.638 114.412 151.82 114.344C152.002 114.275 152.196 114.243 152.39 114.25C152.584 114.243 152.778 114.274 152.96 114.343C153.142 114.412 153.309 114.516 153.45 114.65C153.591 114.774 153.703 114.929 153.778 115.102C153.852 115.275 153.887 115.462 153.88 115.65C153.88 116.1 153.88 116.65 153.88 117.34C153.88 118.29 153.88 118.84 153.88 119.02C155.456 118.732 157.058 118.608 158.66 118.65V118.41C158.66 118.05 158.66 117.53 158.66 116.86C158.66 116.19 158.66 115.67 158.66 115.32C158.655 115.133 158.689 114.947 158.762 114.774C158.834 114.602 158.943 114.447 159.08 114.32C159.373 114.057 159.757 113.917 160.15 113.93C160.541 113.918 160.921 114.058 161.21 114.32C161.347 114.447 161.456 114.602 161.528 114.774C161.601 114.947 161.636 115.133 161.63 115.32C161.63 115.68 161.63 116.19 161.63 116.87C161.63 117.55 161.63 118.06 161.63 118.41C161.63 119.14 161.63 120.2 161.63 121.58C161.63 122.96 161.63 124.03 161.63 124.75C161.637 124.937 161.603 125.124 161.53 125.296C161.458 125.469 161.348 125.624 161.21 125.75C160.933 126.009 160.569 126.155 160.19 126.16V126.17ZM148.25 110.32C148.171 110.878 147.925 111.398 147.545 111.814C147.165 112.229 146.668 112.521 146.12 112.65C145.017 113.042 143.851 113.228 142.68 113.2C141.624 113.221 140.592 112.887 139.75 112.25C139.35 111.991 139.02 111.638 138.79 111.221C138.56 110.804 138.436 110.336 138.43 109.86C138.429 109.72 138.46 109.581 138.52 109.454C138.581 109.328 138.67 109.217 138.78 109.13C139.031 108.942 139.336 108.84 139.65 108.84C139.964 108.84 140.269 108.942 140.52 109.13C140.634 109.214 140.726 109.324 140.788 109.451C140.851 109.578 140.882 109.718 140.88 109.86C140.889 110.044 140.944 110.223 141.04 110.38C141.136 110.537 141.27 110.668 141.43 110.76C141.799 111.019 142.239 111.156 142.69 111.15C144.55 111.15 145.61 110.76 145.85 109.99C145.919 109.736 146.075 109.514 146.29 109.362C146.506 109.211 146.767 109.139 147.03 109.16C147.202 109.15 147.374 109.174 147.535 109.233C147.697 109.291 147.845 109.382 147.97 109.5C148.078 109.603 148.16 109.73 148.209 109.871C148.258 110.012 148.272 110.162 148.25 110.31V110.32ZM149.06 125C149.067 125.187 149.033 125.374 148.96 125.546C148.888 125.719 148.778 125.874 148.64 126C148.345 126.257 147.967 126.399 147.575 126.399C147.183 126.399 146.805 126.257 146.51 126C146.37 125.875 146.259 125.72 146.184 125.548C146.11 125.375 146.075 125.188 146.08 125C146.08 124.57 146.08 123.93 146.15 123.08C146.22 122.23 146.21 121.58 146.21 121.16C146.21 120.74 146.21 120.35 146.16 119.92C145.143 121.377 143.947 122.7 142.6 123.86C141.6 124.61 140.95 125.21 140.48 125.65C140.289 125.856 140.059 126.021 139.803 126.136C139.547 126.251 139.271 126.314 138.99 126.32C138.615 126.325 138.247 126.221 137.93 126.02C137.761 125.914 137.623 125.767 137.528 125.591C137.433 125.416 137.386 125.219 137.39 125.02C137.39 123.13 137.39 121.17 137.28 119.12C137.17 117.07 137.17 115.95 137.17 115.99C137.165 115.804 137.199 115.619 137.27 115.447C137.34 115.275 137.446 115.119 137.58 114.99C137.723 114.856 137.891 114.751 138.075 114.683C138.259 114.614 138.454 114.582 138.65 114.59C139.006 114.565 139.357 114.679 139.63 114.909C139.902 115.138 140.075 115.465 140.11 115.82C140.11 115.94 140.17 116.63 140.21 117.89L140.31 121.96C141.35 121.002 142.328 119.98 143.24 118.9C143.48 118.61 144.37 117.52 145.9 115.62C146.087 115.342 146.336 115.111 146.628 114.946C146.919 114.781 147.245 114.686 147.58 114.67C147.972 114.663 148.351 114.806 148.64 115.07C148.777 115.197 148.885 115.352 148.958 115.525C149.03 115.697 149.065 115.883 149.06 116.07C149.06 116.81 149.06 117.91 149.11 119.39C149.16 120.87 149.11 121.98 149.11 122.72C149.11 122.97 149.11 123.36 149.11 123.87C149.11 124.38 149.06 124.73 149.06 125V125ZM130.37 117.22C129.739 117.208 129.128 117.445 128.67 117.88C128.132 118.442 127.744 119.129 127.54 119.88L129.94 118.88C130.732 118.533 131.497 118.129 132.23 117.67C131.661 117.357 131.02 117.198 130.37 117.21V117.22ZM130.66 126.22C129.175 126.286 127.709 125.861 126.49 125.01C125.905 124.574 125.437 124.002 125.125 123.343C124.812 122.684 124.667 121.958 124.7 121.23C124.653 119.597 125.153 117.996 126.12 116.68C126.607 116.016 127.248 115.48 127.989 115.119C128.73 114.759 129.547 114.584 130.37 114.61C131.426 114.574 132.476 114.779 133.44 115.21C133.886 115.379 134.275 115.673 134.559 116.057C134.843 116.44 135.011 116.897 135.042 117.374C135.074 117.85 134.968 118.325 134.737 118.743C134.506 119.161 134.16 119.503 133.74 119.73C132.976 120.198 132.177 120.606 131.35 120.95L127.76 122.53C128.099 122.898 128.52 123.179 128.99 123.35C129.524 123.547 130.091 123.642 130.66 123.63C131.502 123.655 132.335 123.451 133.07 123.04C133.491 122.747 133.98 122.565 134.49 122.51C134.637 122.493 134.786 122.509 134.927 122.557C135.067 122.605 135.195 122.683 135.301 122.787C135.407 122.89 135.489 123.016 135.541 123.155C135.593 123.294 135.613 123.442 135.6 123.59C135.6 124.4 135 125.07 133.82 125.59C132.823 126.022 131.747 126.243 130.66 126.24V126.22ZM123.5 110.62C123.5 111.62 122.75 112.11 121.24 112.04C121.16 113.073 121.12 114.483 121.12 116.27C121.12 116.64 121.12 117.57 121.23 119.05C121.34 120.53 121.34 121.84 121.34 122.96C121.35 123.295 121.38 123.629 121.43 123.96C121.488 124.29 121.521 124.625 121.53 124.96C121.534 125.148 121.497 125.334 121.423 125.506C121.349 125.679 121.239 125.833 121.1 125.96C120.811 126.224 120.432 126.367 120.04 126.36C119.856 126.378 119.669 126.357 119.493 126.299C119.317 126.241 119.156 126.147 119.018 126.023C118.881 125.899 118.771 125.747 118.695 125.578C118.62 125.408 118.581 125.225 118.58 125.04C118.47 124.338 118.4 123.63 118.37 122.92C118.37 121.82 118.37 120.55 118.26 119.11C118.15 117.67 118.15 116.71 118.15 116.23C118.15 114.37 118.15 112.94 118.26 111.93C117.439 112.001 116.614 112.028 115.79 112.01C114.04 112.01 112.34 112.01 110.69 111.91C110.69 112.19 110.75 112.61 110.79 113.17C110.9 116.65 110.95 118.54 110.95 118.82C110.95 119.1 110.95 119.62 110.89 120.22C110.83 120.82 110.81 121.34 110.8 121.62C110.79 121.9 110.8 122.26 110.8 122.7C110.8 123.29 110.8 123.7 110.8 123.79C110.83 124.352 110.776 124.914 110.64 125.46C110.555 125.744 110.374 125.989 110.128 126.154C109.881 126.318 109.585 126.391 109.29 126.36C108.898 126.371 108.517 126.228 108.23 125.96C108.091 125.833 107.981 125.679 107.907 125.506C107.833 125.334 107.796 125.148 107.8 124.96C107.8 123.27 107.8 122.13 107.8 121.56C107.8 121.29 107.8 120.83 107.89 120.2C107.98 119.57 107.95 119.2 107.95 118.83C107.95 118.46 107.9 116.71 107.79 113.25C107.79 113.25 107.75 112.79 107.67 111.87H106.53C106.335 111.875 106.141 111.841 105.959 111.771C105.777 111.7 105.611 111.595 105.47 111.46C105.334 111.332 105.227 111.177 105.154 111.004C105.082 110.832 105.046 110.647 105.05 110.46C105.05 109.46 105.8 109 107.28 109H108.11C108.67 109 109.5 109 110.61 109.06C111.72 109.12 112.55 109.13 113.11 109.13H121.98C122.375 109.118 122.76 109.262 123.05 109.53C123.204 109.669 123.325 109.841 123.403 110.033C123.481 110.226 123.514 110.433 123.5 110.64V110.62Z" stroke="white" stroke-width="0.57" stroke-miterlimit="22.93"/>
<path fill-rule="evenodd" clip-rule="evenodd" d="M116.14 29.4C116.61 29.89 118.26 32.98 118.14 33.66C118.02 34.34 120.57 35.02 120.57 33.51C120.57 29.98 115.57 24.69 112.79 25.11C112.51 25.21 112.47 25.19 112.45 25.51C112.13 26.88 115.82 29.07 116.14 29.4ZM91.93 23.64C92.0036 23.6829 92.0853 23.7101 92.17 23.72C93.23 24.13 93.27 24.6 94.81 24.72C95.6 24.72 97.03 24.31 98.81 24.19C99.57 24.19 102.06 24.73 101.46 25.81C101.02 25.81 100.73 26.28 100.31 26.18C100.163 26.0441 99.9701 25.9691 99.77 25.97C98.77 25.97 95.56 26.39 94.77 27.04C94.47 27.11 93.77 27.96 93.65 28.23C95.18 28.89 94.39 28.92 96.44 29C98.8511 28.8452 101.173 28.0286 103.15 26.64C107.09 25 109.15 25.78 110.2 25.22C109.2 24.83 108.15 24.66 107.2 24.28C101.5 21.98 99.15 18.92 92.31 20.45C91.31 20.69 87.6 22.1 87.12 23.09C88.7411 23.0491 90.36 23.2342 91.93 23.64ZM92 38C91.6381 37.5883 91.198 37.2525 90.7054 37.0122C90.2127 36.7718 89.6772 36.6317 89.13 36.6C89.7458 39.0942 91.2005 41.3009 93.25 42.85C93.71 43.31 94.08 43.39 94.36 43.67C95.03 44.44 95.02 44.67 94.56 45.18C93.06 46.18 91.83 44.26 91.08 43.18C88.84 40.08 88.77 38.03 84.49 37.07C82.15 36.54 81.88 35.07 81.03 34.28C81.1473 35.3162 81.3411 36.3424 81.61 37.35C82.5 40.23 82.6099 41.35 85.4699 43.41C86.4533 44.12 87.5484 44.6608 88.71 45.01C92.2313 46.184 95.8533 47.0309 99.53 47.54C99.37 47.15 92.33 38.27 92 38ZM122.89 49.77C121.098 49.9976 119.396 50.6868 117.95 51.77C116.95 52.37 113.28 54.77 114.15 56.48C114.514 56.5779 114.9 56.5536 115.248 56.4109C115.597 56.2681 115.889 56.0149 116.08 55.69C117.08 54.85 125.35 49.89 125.72 50.17C126.44 50.85 125.83 51.28 125.81 52.17L127.19 51.72C126.249 49.1267 125.68 46.413 125.5 43.66C125.498 42.9584 125.681 42.2687 126.03 41.66C127.41 41.47 127.65 41.75 127.42 43.13C126.74 47.24 128.56 53.21 132.56 51.13C134.31 50.2 134.46 48.69 135.73 48.68C136.17 49.3 136.3 49.51 135.73 50.31C135.73 50.37 134.63 51.45 134.58 51.48C132.78 52.66 126.58 55.55 127.02 58.23C128.41 58.96 128.92 58.44 130.3 57.23C131.22 56.43 135.96 52.58 136 52.37C136.45 51.84 136.31 51.37 136.51 51.04C136.93 50.24 136.96 49.97 138.01 49.98C138.74 51.41 137.93 51.46 137.79 52.69C138.465 53.1893 139.291 53.4433 140.13 53.41C139.82 52.68 139.13 51.67 138.75 50.93C137.839 49.1809 137.166 47.3177 136.75 45.39C136.65 44 136.36 42.3 137.03 41.68C139.14 41.45 138.27 43.96 138.5 45.51C138.862 46.8033 139.354 48.0564 139.97 49.25C142.46 54.3 144.62 49.58 146.29 49.77C146.47 51.43 141.11 55.21 140.78 56.21C140.51 57.01 139.78 57.4 140.58 58.54C142.29 58.71 147.77 54.18 147.95 53.04C148.073 52.179 148.103 51.3074 148.04 50.44C148.47 50.44 148.39 50.36 148.68 50.91C149.55 52.55 149.68 54.91 153.06 54.41C152.32 53.19 151.17 53.08 149.9 50.48C148.922 48.5487 148.572 46.3599 148.9 44.22C141.9 42.65 141.31 40.55 133.24 40.69C131.929 40.3845 130.571 40.3335 129.24 40.54C125.82 41.48 125.62 41.48 122.44 40.6C121.44 40.34 121 40.51 120.53 39.6C120.87 38.14 122.13 38.82 123.23 39.16C125.63 39.9 124.68 39.68 126.64 39.56C125.92 37.98 127.26 38.24 127.64 36.63C126.555 36.7179 125.482 36.9224 124.44 37.24C122.794 37.5619 121.117 37.7028 119.44 37.66C118.44 37.72 115.08 38.72 114.74 37.74C114.84 37.27 115.36 37.47 115.96 37.34C116.96 37.12 116.89 36.34 117.35 35.81L118.19 35.26C116.27 35.26 116.93 35.51 116.19 36.52C115.64 37.28 114.08 36.76 113.89 37.35C113.56 38.85 115.76 38.86 117.09 38.9C118.98 38.76 121.49 39.25 119.82 40.61C117.92 41.19 114.68 39.68 112.5 39.99C112.5 40.85 113.16 41.49 112.33 42.1C112.193 42.1356 112.068 42.2082 111.97 42.31C111.134 42.4564 110.282 42.4767 109.44 42.37C109.448 42.8704 109.653 43.3475 110.011 43.6977C110.368 44.0478 110.849 44.2427 111.35 44.24C111.724 44.179 112.072 44.0085 112.35 43.75C112.591 43.8245 112.846 43.8434 113.095 43.8053C113.345 43.7672 113.582 43.6731 113.79 43.53C113.882 43.5858 113.969 43.6493 114.05 43.72C114.164 43.894 114.224 44.0972 114.224 44.305C114.224 44.5128 114.164 44.716 114.05 44.89C113.68 45.48 109.5 48.02 108.78 48.45C103.85 51.32 103.02 47.6 100.97 48.39C100.26 50.33 104.23 51.98 105.81 51.87C107.81 51.75 111.06 49.57 113.05 48.53C116.38 47.21 118.38 47.53 121.79 47.73C122.553 48.1123 123.423 48.2284 124.26 48.06C124.55 48.29 124.66 48.7 124.47 49.44C123.962 49.6023 123.44 49.7129 122.91 49.77H122.89ZM133 10C132.196 11.1515 131.635 12.4547 131.352 13.8302C131.068 15.2056 131.067 16.6244 131.35 18C131.66 20 137.5 25.33 139.84 23.69C137.07 22.91 136.4 21.6 134.84 19.96C134.818 19.4113 134.992 18.8727 135.33 18.44C138.86 12.72 134.55 13.69 135.67 10.1C136.28 8.1 137.67 7.78 139.46 6.81C139.423 6.33918 139.269 5.8852 139.01 5.49C135.74 5.87 134.38 7.93 133 10ZM150.56 2.93C149.73 2.52 141.63 3.63 139.93 5.09C139.79 7.76 142.22 5.25 148.55 5.35C152.75 5.4 150.35 3.5 150.58 2.91L150.56 2.93ZM152.79 2.57C151.79 2.57 151.26 4.57 152.36 4.86C152.59 5.41 160.2 6.86 164.18 8.81C165.41 9.57 166.69 10.45 167.84 11.31C168.28 10.55 169.19 10.31 169.31 9.06C166 3.56 154.44 2.55 152.81 2.55L152.79 2.57ZM174.47 31.51C172.94 31.16 172.83 35.29 171.47 38.35C171.11 38.67 169.47 42.69 166.53 43.64L166.35 43.71C163.56 45.0086 160.551 45.7718 157.48 45.96C155.79 45.96 154.85 46.48 152.66 45.29C152.27 44.98 150.66 44.65 150.66 45.74C150.66 55.74 159.37 52.85 167.11 48.8C172.05 46.2 177.11 40.49 177.97 34.6C178.13 33.11 175.65 31.49 174.49 31.49L174.47 31.51ZM141.58 36.11C141.58 36.82 142.96 37.88 147.92 39.4C149.384 39.797 150.88 40.068 152.39 40.21C152.6 40.21 152.8 40.1268 152.949 39.9786C153.097 39.8305 153.18 39.6295 153.18 39.42C153.18 39.2105 153.097 39.0095 152.949 38.8614C152.8 38.7132 152.6 38.63 152.39 38.63C150.946 38.4353 149.534 38.052 148.19 37.49C146.68 36.85 144.64 36.34 143.19 35.49C142.74 35.14 141.6 35.11 141.6 36.09L141.58 36.11ZM130.79 36.64C129.38 36.64 127.99 38.64 128.03 39.36C128.79 39.68 129.25 39.05 130.15 38.88C132.08 38.5 134.28 39.63 137.49 39.11C137.69 38.5 139.01 38.11 138.43 37.2C136.34 37 133.25 36.62 130.81 36.62L130.79 36.64ZM170.59 9.42C170.124 9.78219 169.736 10.2345 169.449 10.75C169.163 11.2654 168.982 11.8334 168.92 12.42C168.92 13.36 173.24 20.35 173.55 21.33C174.31 23.66 173.61 28.33 174.55 30.15C175.27 30.63 178.64 31.93 179.14 29.84C179.52 28.23 177.78 19.84 176.81 18.1C176.73 17.72 172.06 9.4 170.61 9.4L170.59 9.42ZM156.9 36.91C156.9 36.8427 156.874 36.7781 156.827 36.7296C156.781 36.6811 156.717 36.6526 156.65 36.65C155.765 36.788 154.908 37.0648 154.11 37.47C153.72 37.56 153.61 38.32 154.02 38.32C154.75 38.32 156.9 37.78 156.9 36.91ZM168.19 38.47C167.89 38.47 164.55 40.66 162.81 41.14C150.07 43 147.94 39.9 140.19 38C139.84 37.92 139.55 38.28 139.55 38.64C139.55 39 139.83 39.77 140.19 39.77C142.02 39.77 147.96 43.05 151.08 43.77C153.21 44.22 161.93 44.01 164.4 43C168.05 41.36 168.33 39.37 168.4 39C168.47 38.63 168.55 38.47 168.19 38.47ZM143.44 34C143.401 34.1441 143.401 34.2959 143.44 34.44C143.61 35.12 148.1 35.71 148.9 34.09C148.941 34.061 148.972 34.0214 148.992 33.9755C149.011 33.9296 149.017 33.8793 149.01 33.83C149 33.25 143.72 33 143.44 34ZM131 35.5C132.94 35.72 137.9 36.18 138.69 35.85C139.25 35.62 138.82 35.01 138.69 34.95C137.778 34.6418 136.794 34.6208 135.87 34.89C134.94 35.14 132.69 34.63 131.31 34.79C129.93 34.95 129.75 35.5 131 35.5ZM118.59 36.17C118.59 36.47 118.59 36.62 118.85 36.61C120.02 36.54 119.77 36.41 120.69 36.41H124.14C125.176 36.3621 126.206 36.2283 127.22 36.01C127.6 35.93 129.95 34.89 129.95 33.93C129.947 33.8628 129.919 33.7992 129.87 33.7526C129.822 33.706 129.757 33.68 129.69 33.68C128.745 33.9045 127.854 34.3159 127.07 34.89C125.69 35.89 120.62 34.89 119.51 35.45C119.29 35.49 118.58 35.81 118.57 36.17H118.59ZM138.41 31.92C138.34 31.8 138.25 31.69 138.11 31.72C137.27 31.88 133.51 32.72 133.46 32.72C132.86 32.87 133.15 34.08 133.52 34.08H133.73C135.45 34.09 139.1 33.07 138.39 31.92H138.41ZM139.48 66.08C139.11 66.31 138.6 67.53 138.18 67.86C137.95 68.05 137.74 67.47 137.59 67.47C137.15 66.27 138.82 62.15 138.38 61.1C137.83 59.79 137.29 58.68 138.74 56.86C141.03 53.99 135.55 54.95 134.25 55.62C132.25 56.62 130.86 58.44 129.25 60.12C127.945 61.8722 126.948 63.8335 126.3 65.92C125.879 66.3458 125.512 66.8229 125.21 67.34C124.11 66.18 123.8 66.16 124.15 63.92C124.377 62.6042 124.677 61.3022 125.05 60.02C125.52 58.21 124.1 58.12 125.73 56.21C126.4 55.3356 127.223 54.5902 128.16 54.01L127.48 53.67C125.808 53.3885 124.094 53.512 122.48 54.03C117.73 56.29 118.39 56.48 116.62 57.94C114.734 59.3638 113.289 61.2911 112.45 63.5C111.97 63.7 111.52 64.62 111.18 64.97C109.82 63.51 110.44 62.5 110.92 61.19C111.34 60.08 111.67 59.19 112.04 58.19C112.59 56.64 110.94 56.91 112.3 55.19C113.17 54.09 116.2 52.26 115.96 50.68C115.42 50.4776 114.84 50.4074 114.268 50.4753C113.695 50.5431 113.147 50.7471 112.67 51.07C106.43 54.42 103.85 55.64 99.21 49.31C98.41 48.22 94.15 47.84 92.7 47.6C87.95 46.78 83.9 44.97 81.7 42.01C78.7 38.01 79.23 29.57 80.56 29.01C81.12 29.42 80.62 31.29 82.76 33.88C84.0574 35.1612 85.7339 35.989 87.54 36.24C87.2876 35.75 86.9488 35.3096 86.54 34.94C86.06 34.45 85.54 34.26 85.34 33.68C86.26 33.37 88.34 34.17 89.34 34.61C92.9 36.22 95 39.04 97.13 42.01L99.4099 44.84C100.97 46.9 100.54 45.84 102.41 46.9C103.601 47.6457 105.021 47.9369 106.41 47.72C107.618 47.4621 108.725 46.8614 109.6 45.99L108 43.54C107.12 41.81 107.64 37.11 108.69 35.42L109.64 34.42C110.1 35.11 109.8 35.65 110.15 36.6C110.385 37.1715 110.652 37.729 110.95 38.27L112.14 38.2C112.14 37.2 112.3 36.86 112.29 36.2C112.29 35.82 111.4 31.8 113.2 31.4C113.92 32.1 114.2 34.04 115.74 33.3C116.42 32.18 115.09 30.77 114.45 29.98C113.667 29.0817 112.702 28.3592 111.62 27.86C111 27.5 110.77 27 110 27C107.32 26.83 102.69 28.73 100.22 29.72C98.2199 30.51 98.65 30.72 96.04 30.53C94.98 30.53 89.15 28.53 88.77 27.88C89.13 27.31 90.17 27.4 90.77 27.28C91.404 27.1544 92.0169 26.9389 92.59 26.64C92.06 25.31 88.91 24.35 86.9 24.53C86.1621 24.5804 85.4457 24.7995 84.8059 25.1706C84.1662 25.5416 83.6202 26.0546 83.21 26.67C82.87 27.09 82.75 27.41 82.12 27.37C81.68 26.46 82.96 24.37 83.55 23.61C86.13 20.46 90.7599 18.73 95.0999 18.61C104.1 18.3 105.88 24.45 111.85 23.61C114.68 23.2 117.85 25.34 119.19 27.39C119.94 28.56 120.48 29.55 121.27 30.88C124.8 36.81 126.86 31.73 130.85 32.34C132.27 32.55 131.68 32.34 132.85 31.85C134.359 31.4138 135.896 31.0797 137.45 30.85C138.85 30.52 140.53 29.85 141.45 30.99C141.15 31.99 140 32.05 139.45 33.4C143.89 34.65 141.89 32.6 145.84 32.4C148.495 32.4381 151.145 32.6217 153.78 32.95C154.13 35.07 149.5 33.59 149.41 35.95C150.69 37.02 153.41 36.89 155.1 36.35C158.16 35.35 157.66 33.96 159.93 34.25C160.06 36.02 157.73 37.17 158 38.83C159.94 39.94 160.35 37.96 161.43 36.95C161.72 36.67 161.51 36.75 161.96 36.71L162.25 38.93C165.07 38.85 169.09 35.41 170.25 32.79C171.92 29.12 172.53 25.18 170.98 21.17C169.868 17.9176 167.853 15.0491 165.17 12.9C162.327 10.7544 159.073 9.21588 155.61 8.38C151.39 7.3 147.61 6.59 143.22 7.61C133.98 9.77 138.62 11.55 138.42 14.74C138.27 16.92 136.24 18.19 137.36 20.11C137.828 20.8313 138.44 21.448 139.157 21.9212C139.875 22.3945 140.683 22.7141 141.53 22.86C147.41 23.59 147.79 21.2 150.32 18.4C150.23 22.29 145.54 24.81 142.89 25.4C140.597 25.8311 138.226 25.5592 136.09 24.62C134.01 23.67 131.3 21.38 130.51 19.52C129.893 18.1597 129.605 16.6732 129.669 15.1808C129.733 13.6884 130.148 12.2321 130.88 10.93C133.36 5.93 137.99 3.36 143.63 2.31C150.36 1.06 155.85 0.309999 162.36 2.37C165.207 3.32292 167.874 4.74594 170.25 6.58C173.57 9.2 173.75 9.81 176.07 12.84C176.467 13.3526 176.802 13.9097 177.07 14.5C179.128 18.3419 180.277 22.6044 180.43 26.96C180.758 32.8809 179.081 38.7395 175.67 43.59C173.41 46.78 167.67 50.59 163.67 52.18C163.2 52.18 153.01 56.29 152.82 56.83C152.37 58.06 152.82 59.39 152.82 60.7C151.16 60.45 150.22 57.81 149.45 56.64C148.27 54.83 144.36 57.74 143.45 60.17C142.67 62 140.51 63.9 139.46 66.08H139.48ZM109.1 38.24C109.34 38.37 110.77 39.8 110.56 40.78C110.45 40.859 110.324 40.9109 110.19 40.9311C110.056 40.9514 109.92 40.9395 109.792 40.8965C109.664 40.8535 109.548 40.7805 109.454 40.6838C109.359 40.587 109.29 40.4691 109.25 40.34C109.003 39.6681 108.951 38.9402 109.1 38.24Z" fill="#009DE2"/>
<path d="M116.14 29.4C116.61 29.89 118.26 32.98 118.14 33.66C118.02 34.34 120.57 35.02 120.57 33.51C120.57 29.98 115.57 24.69 112.79 25.11C112.51 25.21 112.47 25.19 112.45 25.51C112.13 26.88 115.82 29.07 116.14 29.4ZM91.93 23.64C92.0036 23.6829 92.0853 23.7101 92.17 23.72C93.23 24.13 93.27 24.6 94.81 24.72C95.6 24.72 97.03 24.31 98.81 24.19C99.57 24.19 102.06 24.73 101.46 25.81C101.02 25.81 100.73 26.28 100.31 26.18C100.163 26.0441 99.9701 25.9691 99.77 25.97C98.77 25.97 95.56 26.39 94.77 27.04C94.47 27.11 93.77 27.96 93.65 28.23C95.18 28.89 94.39 28.92 96.44 29C98.8511 28.8452 101.173 28.0286 103.15 26.64C107.09 25 109.15 25.78 110.2 25.22C109.2 24.83 108.15 24.66 107.2 24.28C101.5 21.98 99.15 18.92 92.31 20.45C91.31 20.69 87.6 22.1 87.12 23.09C88.7411 23.0491 90.36 23.2342 91.93 23.64V23.64ZM92 38C91.6381 37.5883 91.198 37.2525 90.7054 37.0122C90.2127 36.7718 89.6772 36.6317 89.13 36.6C89.7458 39.0942 91.2005 41.3009 93.25 42.85C93.71 43.31 94.08 43.39 94.36 43.67C95.03 44.44 95.02 44.67 94.56 45.18C93.06 46.18 91.83 44.26 91.08 43.18C88.84 40.08 88.77 38.03 84.49 37.07C82.15 36.54 81.88 35.07 81.03 34.28C81.1473 35.3162 81.3411 36.3424 81.61 37.35C82.5 40.23 82.6099 41.35 85.4699 43.41C86.4533 44.12 87.5484 44.6608 88.71 45.01C92.2313 46.184 95.8533 47.0309 99.53 47.54C99.37 47.15 92.33 38.27 92 38ZM122.89 49.77C121.098 49.9976 119.396 50.6868 117.95 51.77C116.95 52.37 113.28 54.77 114.15 56.48C114.514 56.5779 114.9 56.5536 115.248 56.4109C115.597 56.2681 115.889 56.0149 116.08 55.69C117.08 54.85 125.35 49.89 125.72 50.17C126.44 50.85 125.83 51.28 125.81 52.17L127.19 51.72C126.249 49.1267 125.68 46.413 125.5 43.66C125.498 42.9584 125.681 42.2687 126.03 41.66C127.41 41.47 127.65 41.75 127.42 43.13C126.74 47.24 128.56 53.21 132.56 51.13C134.31 50.2 134.46 48.69 135.73 48.68C136.17 49.3 136.3 49.51 135.73 50.31C135.73 50.37 134.63 51.45 134.58 51.48C132.78 52.66 126.58 55.55 127.02 58.23C128.41 58.96 128.92 58.44 130.3 57.23C131.22 56.43 135.96 52.58 136 52.37C136.45 51.84 136.31 51.37 136.51 51.04C136.93 50.24 136.96 49.97 138.01 49.98C138.74 51.41 137.93 51.46 137.79 52.69C138.465 53.1893 139.291 53.4433 140.13 53.41C139.82 52.68 139.13 51.67 138.75 50.93C137.839 49.1809 137.166 47.3177 136.75 45.39C136.65 44 136.36 42.3 137.03 41.68C139.14 41.45 138.27 43.96 138.5 45.51C138.862 46.8033 139.354 48.0564 139.97 49.25C142.46 54.3 144.62 49.58 146.29 49.77C146.47 51.43 141.11 55.21 140.78 56.21C140.51 57.01 139.78 57.4 140.58 58.54C142.29 58.71 147.77 54.18 147.95 53.04C148.073 52.179 148.103 51.3074 148.04 50.44C148.47 50.44 148.39 50.36 148.68 50.91C149.55 52.55 149.68 54.91 153.06 54.41C152.32 53.19 151.17 53.08 149.9 50.48C148.922 48.5487 148.572 46.3599 148.9 44.22C141.9 42.65 141.31 40.55 133.24 40.69C131.929 40.3845 130.571 40.3335 129.24 40.54C125.82 41.48 125.62 41.48 122.44 40.6C121.44 40.34 121 40.51 120.53 39.6C120.87 38.14 122.13 38.82 123.23 39.16C125.63 39.9 124.68 39.68 126.64 39.56C125.92 37.98 127.26 38.24 127.64 36.63C126.555 36.7179 125.482 36.9224 124.44 37.24C122.794 37.5619 121.117 37.7028 119.44 37.66C118.44 37.72 115.08 38.72 114.74 37.74C114.84 37.27 115.36 37.47 115.96 37.34C116.96 37.12 116.89 36.34 117.35 35.81L118.19 35.26C116.27 35.26 116.93 35.51 116.19 36.52C115.64 37.28 114.08 36.76 113.89 37.35C113.56 38.85 115.76 38.86 117.09 38.9C118.98 38.76 121.49 39.25 119.82 40.61C117.92 41.19 114.68 39.68 112.5 39.99C112.5 40.85 113.16 41.49 112.33 42.1C112.193 42.1356 112.068 42.2082 111.97 42.31C111.134 42.4564 110.282 42.4767 109.44 42.37C109.448 42.8704 109.653 43.3475 110.011 43.6977C110.368 44.0478 110.849 44.2427 111.35 44.24C111.724 44.179 112.072 44.0085 112.35 43.75C112.591 43.8245 112.846 43.8434 113.095 43.8053C113.345 43.7672 113.582 43.6731 113.79 43.53C113.882 43.5858 113.969 43.6493 114.05 43.72C114.164 43.894 114.224 44.0972 114.224 44.305C114.224 44.5128 114.164 44.716 114.05 44.89C113.68 45.48 109.5 48.02 108.78 48.45C103.85 51.32 103.02 47.6 100.97 48.39C100.26 50.33 104.23 51.98 105.81 51.87C107.81 51.75 111.06 49.57 113.05 48.53C116.38 47.21 118.38 47.53 121.79 47.73C122.553 48.1123 123.423 48.2284 124.26 48.06C124.55 48.29 124.66 48.7 124.47 49.44C123.962 49.6023 123.44 49.7129 122.91 49.77H122.89ZM133 10C132.196 11.1515 131.635 12.4547 131.352 13.8302C131.068 15.2056 131.067 16.6244 131.35 18C131.66 20 137.5 25.33 139.84 23.69C137.07 22.91 136.4 21.6 134.84 19.96C134.818 19.4113 134.992 18.8727 135.33 18.44C138.86 12.72 134.55 13.69 135.67 10.1C136.28 8.1 137.67 7.78 139.46 6.81C139.423 6.33918 139.269 5.8852 139.01 5.49C135.74 5.87 134.38 7.93 133 10ZM150.56 2.93C149.73 2.52 141.63 3.63 139.93 5.09C139.79 7.76 142.22 5.25 148.55 5.35C152.75 5.4 150.35 3.5 150.58 2.91L150.56 2.93ZM152.79 2.57C151.79 2.57 151.26 4.57 152.36 4.86C152.59 5.41 160.2 6.86 164.18 8.81C165.41 9.57 166.69 10.45 167.84 11.31C168.28 10.55 169.19 10.31 169.31 9.06C166 3.56 154.44 2.55 152.81 2.55L152.79 2.57ZM174.47 31.51C172.94 31.16 172.83 35.29 171.47 38.35C171.11 38.67 169.47 42.69 166.53 43.64L166.35 43.71C163.56 45.0086 160.551 45.7718 157.48 45.96V45.96C155.79 45.96 154.85 46.48 152.66 45.29C152.27 44.98 150.66 44.65 150.66 45.74C150.66 55.74 159.37 52.85 167.11 48.8C172.05 46.2 177.11 40.49 177.97 34.6C178.13 33.11 175.65 31.49 174.49 31.49L174.47 31.51ZM141.58 36.11C141.58 36.82 142.96 37.88 147.92 39.4C149.384 39.797 150.88 40.068 152.39 40.21C152.6 40.21 152.8 40.1268 152.949 39.9786C153.097 39.8305 153.18 39.6295 153.18 39.42C153.18 39.2105 153.097 39.0095 152.949 38.8614C152.8 38.7132 152.6 38.63 152.39 38.63C150.946 38.4353 149.534 38.052 148.19 37.49C146.68 36.85 144.64 36.34 143.19 35.49C142.74 35.14 141.6 35.11 141.6 36.09L141.58 36.11ZM130.79 36.64C129.38 36.64 127.99 38.64 128.03 39.36C128.79 39.68 129.25 39.05 130.15 38.88C132.08 38.5 134.28 39.63 137.49 39.11C137.69 38.5 139.01 38.11 138.43 37.2C136.34 37 133.25 36.62 130.81 36.62L130.79 36.64ZM170.59 9.42C170.124 9.78219 169.736 10.2345 169.449 10.75C169.163 11.2654 168.982 11.8334 168.92 12.42C168.92 13.36 173.24 20.35 173.55 21.33C174.31 23.66 173.61 28.33 174.55 30.15C175.27 30.63 178.64 31.93 179.14 29.84C179.52 28.23 177.78 19.84 176.81 18.1C176.73 17.72 172.06 9.4 170.61 9.4L170.59 9.42ZM156.9 36.91C156.9 36.8427 156.874 36.7781 156.827 36.7296C156.781 36.6811 156.717 36.6526 156.65 36.65C155.765 36.788 154.908 37.0648 154.11 37.47C153.72 37.56 153.61 38.32 154.02 38.32C154.75 38.32 156.9 37.78 156.9 36.91ZM168.19 38.47C167.89 38.47 164.55 40.66 162.81 41.14C150.07 43 147.94 39.9 140.19 38C139.84 37.92 139.55 38.28 139.55 38.64C139.55 39 139.83 39.77 140.19 39.77C142.02 39.77 147.96 43.05 151.08 43.77C153.21 44.22 161.93 44.01 164.4 43C168.05 41.36 168.33 39.37 168.4 39C168.47 38.63 168.55 38.47 168.19 38.47V38.47ZM143.44 34C143.401 34.1441 143.401 34.2959 143.44 34.44C143.61 35.12 148.1 35.71 148.9 34.09C148.941 34.061 148.972 34.0214 148.992 33.9755C149.011 33.9296 149.017 33.8793 149.01 33.83C149 33.25 143.72 33 143.44 34ZM131 35.5C132.94 35.72 137.9 36.18 138.69 35.85C139.25 35.62 138.82 35.01 138.69 34.95C137.778 34.6418 136.794 34.6208 135.87 34.89C134.94 35.14 132.69 34.63 131.31 34.79C129.93 34.95 129.75 35.5 131 35.5ZM118.59 36.17C118.59 36.47 118.59 36.62 118.85 36.61C120.02 36.54 119.77 36.41 120.69 36.41H124.14C125.176 36.3621 126.206 36.2283 127.22 36.01C127.6 35.93 129.95 34.89 129.95 33.93C129.947 33.8628 129.919 33.7992 129.87 33.7526C129.822 33.706 129.757 33.68 129.69 33.68C128.745 33.9045 127.854 34.3159 127.07 34.89C125.69 35.89 120.62 34.89 119.51 35.45C119.29 35.49 118.58 35.81 118.57 36.17H118.59ZM138.41 31.92C138.34 31.8 138.25 31.69 138.11 31.72C137.27 31.88 133.51 32.72 133.46 32.72C132.86 32.87 133.15 34.08 133.52 34.08H133.73C135.45 34.09 139.1 33.07 138.39 31.92H138.41ZM139.48 66.08C139.11 66.31 138.6 67.53 138.18 67.86C137.95 68.05 137.74 67.47 137.59 67.47C137.15 66.27 138.82 62.15 138.38 61.1C137.83 59.79 137.29 58.68 138.74 56.86C141.03 53.99 135.55 54.95 134.25 55.62C132.25 56.62 130.86 58.44 129.25 60.12C127.945 61.8722 126.948 63.8335 126.3 65.92C125.879 66.3458 125.512 66.8229 125.21 67.34V67.34C124.11 66.18 123.8 66.16 124.15 63.92C124.377 62.6042 124.677 61.3022 125.05 60.02C125.52 58.21 124.1 58.12 125.73 56.21C126.4 55.3356 127.223 54.5902 128.16 54.01L127.48 53.67C125.808 53.3885 124.094 53.512 122.48 54.03C117.73 56.29 118.39 56.48 116.62 57.94C114.734 59.3638 113.289 61.2911 112.45 63.5C111.97 63.7 111.52 64.62 111.18 64.97C109.82 63.51 110.44 62.5 110.92 61.19C111.34 60.08 111.67 59.19 112.04 58.19C112.59 56.64 110.94 56.91 112.3 55.19C113.17 54.09 116.2 52.26 115.96 50.68C115.42 50.4776 114.84 50.4074 114.268 50.4753C113.695 50.5431 113.147 50.7471 112.67 51.07C106.43 54.42 103.85 55.64 99.21 49.31C98.41 48.22 94.15 47.84 92.7 47.6C87.95 46.78 83.9 44.97 81.7 42.01C78.7 38.01 79.23 29.57 80.56 29.01C81.12 29.42 80.62 31.29 82.76 33.88C84.0574 35.1612 85.7339 35.989 87.54 36.24C87.2876 35.75 86.9488 35.3096 86.54 34.94C86.06 34.45 85.54 34.26 85.34 33.68C86.26 33.37 88.34 34.17 89.34 34.61C92.9 36.22 95 39.04 97.13 42.01L99.4099 44.84C100.97 46.9 100.54 45.84 102.41 46.9C103.601 47.6457 105.021 47.9369 106.41 47.72C107.618 47.4621 108.725 46.8614 109.6 45.99L108 43.54C107.12 41.81 107.64 37.11 108.69 35.42L109.64 34.42C110.1 35.11 109.8 35.65 110.15 36.6C110.385 37.1715 110.652 37.729 110.95 38.27L112.14 38.2C112.14 37.2 112.3 36.86 112.29 36.2C112.29 35.82 111.4 31.8 113.2 31.4C113.92 32.1 114.2 34.04 115.74 33.3C116.42 32.18 115.09 30.77 114.45 29.98C113.667 29.0817 112.702 28.3592 111.62 27.86C111 27.5 110.77 27 110 27C107.32 26.83 102.69 28.73 100.22 29.72C98.2199 30.51 98.65 30.72 96.04 30.53C94.98 30.53 89.15 28.53 88.77 27.88C89.13 27.31 90.17 27.4 90.77 27.28C91.404 27.1544 92.0169 26.9389 92.59 26.64C92.06 25.31 88.91 24.35 86.9 24.53C86.1621 24.5804 85.4457 24.7995 84.8059 25.1706C84.1662 25.5416 83.6202 26.0546 83.21 26.67C82.87 27.09 82.75 27.41 82.12 27.37C81.68 26.46 82.96 24.37 83.55 23.61C86.13 20.46 90.7599 18.73 95.0999 18.61C104.1 18.3 105.88 24.45 111.85 23.61C114.68 23.2 117.85 25.34 119.19 27.39C119.94 28.56 120.48 29.55 121.27 30.88C124.8 36.81 126.86 31.73 130.85 32.34C132.27 32.55 131.68 32.34 132.85 31.85C134.359 31.4138 135.896 31.0797 137.45 30.85C138.85 30.52 140.53 29.85 141.45 30.99C141.15 31.99 140 32.05 139.45 33.4C143.89 34.65 141.89 32.6 145.84 32.4C148.495 32.4381 151.145 32.6217 153.78 32.95C154.13 35.07 149.5 33.59 149.41 35.95C150.69 37.02 153.41 36.89 155.1 36.35C158.16 35.35 157.66 33.96 159.93 34.25C160.06 36.02 157.73 37.17 158 38.83C159.94 39.94 160.35 37.96 161.43 36.95C161.72 36.67 161.51 36.75 161.96 36.71L162.25 38.93C165.07 38.85 169.09 35.41 170.25 32.79C171.92 29.12 172.53 25.18 170.98 21.17C169.868 17.9176 167.853 15.0491 165.17 12.9C162.327 10.7544 159.073 9.21588 155.61 8.38C151.39 7.3 147.61 6.59 143.22 7.61C133.98 9.77 138.62 11.55 138.42 14.74C138.27 16.92 136.24 18.19 137.36 20.11C137.828 20.8313 138.44 21.448 139.157 21.9212C139.875 22.3945 140.683 22.7141 141.53 22.86C147.41 23.59 147.79 21.2 150.32 18.4C150.23 22.29 145.54 24.81 142.89 25.4C140.597 25.8311 138.226 25.5592 136.09 24.62C134.01 23.67 131.3 21.38 130.51 19.52C129.893 18.1597 129.605 16.6732 129.669 15.1808C129.733 13.6884 130.148 12.2321 130.88 10.93C133.36 5.93 137.99 3.36 143.63 2.31C150.36 1.06 155.85 0.309999 162.36 2.37C165.207 3.32292 167.874 4.74594 170.25 6.58C173.57 9.2 173.75 9.81 176.07 12.84C176.467 13.3526 176.802 13.9097 177.07 14.5C179.128 18.3419 180.277 22.6044 180.43 26.96C180.758 32.8809 179.081 38.7395 175.67 43.59C173.41 46.78 167.67 50.59 163.67 52.18C163.2 52.18 153.01 56.29 152.82 56.83C152.37 58.06 152.82 59.39 152.82 60.7C151.16 60.45 150.22 57.81 149.45 56.64C148.27 54.83 144.36 57.74 143.45 60.17C142.67 62 140.51 63.9 139.46 66.08H139.48ZM109.1 38.24C109.34 38.37 110.77 39.8 110.56 40.78C110.45 40.859 110.324 40.9109 110.19 40.9311C110.056 40.9514 109.92 40.9395 109.792 40.8965C109.664 40.8535 109.548 40.7805 109.454 40.6838C109.359 40.587 109.29 40.4691 109.25 40.34C109.003 39.6681 108.951 38.9402 109.1 38.24V38.24Z" stroke="#009DE2" stroke-width="0.22" stroke-miterlimit="22.93"/>
</svg>
